<svg width="12" height="12" viewBox="0 0 12 12" xmlns="http://www.w3.org/2000/svg">
    <path d="M4.67834 5.99914L0.191708 10.486C0.0682926 10.6095 0.000195503 10.7743 0 10.95C0 11.1258 0.0680981 11.2907 0.191708 11.4141L0.584879 11.8071C0.708488 11.9309 0.873268 11.9987 1.04917 11.9987C1.22478 11.9987 1.38956 11.9309 1.51317 11.8071L5.9998 7.3206L10.4866 11.8071C10.61 11.9309 10.7749 11.9987 10.9507 11.9987C11.1263 11.9987 11.2912 11.9309 11.4146 11.8071L11.808 11.4141C12.064 11.1581 12.064 10.7417 11.808 10.486L7.32127 5.99914L11.808 1.51251C11.9315 1.3888 11.9995 1.22402 11.9995 1.04831C11.9995 0.872603 11.9315 0.707823 11.808 0.584213L11.4147 0.19114C11.2913 0.0674334 11.1263 -0.000470161 10.9508 -0.000470161C10.775 -0.000470161 10.6101 0.0674334 10.4867 0.19114L5.9999 4.67777L1.51327 0.19114C1.38966 0.0674334 1.22488 -0.000470161 1.04927 -0.000470161H1.04907C0.873366 -0.000470161 0.708586 0.0674334 0.584976 0.19114L0.191806 0.584213C0.0683908 0.707726 0.000292778 0.872603 0.000292778 1.04831C0.000292778 1.22402 0.0683908 1.3888 0.191806 1.51241L4.67834 5.99914Z" />
</svg>
