<svg width="12" height="13" viewBox="0 0 12 13" fill="none" xmlns="http://www.w3.org/2000/svg">
<path d="M11.7356 10.2888C9.8402 9.119 9.94235 5.31717 9.94399 5.26017C9.94399 3.48534 8.76455 1.98157 7.14847 1.48855V1.14833C7.1484 0.515258 6.63318 0 6 0C5.36682 0 4.85153 0.515258 4.85153 1.1484V1.48862C3.23545 1.98194 2.05609 3.4887 2.05638 5.27942C2.09302 6.34254 1.84239 9.31493 0.264435 10.2888C0.0526033 10.4196 -0.0467836 10.6753 0.0211904 10.9151C0.0892392 11.1547 0.307935 11.3201 0.557149 11.3201H3.89295C4.11337 12.2807 4.97345 13 6 13C7.02655 13 7.88664 12.2807 8.10705 11.3201H11.4429C11.6921 11.3201 11.9108 11.1547 11.9788 10.9151C12.0468 10.6753 11.9474 10.4196 11.7356 10.2888ZM5.5003 10.2058H1.92618C3.25694 8.32776 3.17531 5.39439 3.17038 5.26024C3.17038 3.70037 4.43981 2.43117 6.00037 2.43117C7.56035 2.43117 8.82962 3.70037 8.82999 5.24099C8.82477 5.39118 8.74314 8.32739 10.0738 10.2058H5.5003Z" fill="#2A66C5"/>
</svg>
