<svg width="14" height="14" viewBox="0 0 14 14" xmlns="http://www.w3.org/2000/svg">
<path d="M7 0C3.13394 0 0 3.13408 0 7C0 10.8659 3.13394 14 7 14C10.8659 14 13.9999 10.8659 13.9999 7C13.9999 3.13408 10.8658 0 7 0ZM7.58396 11.6944C7.36471 11.911 7.05912 12.021 6.67661 12.021C6.2854 12.021 5.97596 11.9136 5.75685 11.7018C5.53675 11.4888 5.4252 11.1883 5.4252 10.8087C5.4252 10.4163 5.53475 10.1124 5.75059 9.90599C5.96571 9.70084 6.27713 9.59656 6.67661 9.59656C7.06325 9.59656 7.36913 9.70284 7.58638 9.91269C7.80407 10.1234 7.91462 10.425 7.91462 10.8087C7.91462 11.1795 7.80322 11.4775 7.58396 11.6944ZM9.748 5.74061C9.52405 6.09834 9.09751 6.50337 8.48006 6.94444C8.07874 7.24119 7.82088 7.46928 7.71717 7.61972C7.61944 7.76147 7.56986 7.95394 7.56986 8.19157V8.47365C7.56986 8.59161 7.47412 8.68735 7.35616 8.68735H5.84746C5.7295 8.68735 5.63376 8.59161 5.63376 8.47365V8.10026C5.63376 7.66702 5.72822 7.28365 5.9147 6.96054C6.09934 6.64085 6.43684 6.29979 6.91808 5.94676C7.36471 5.62778 7.66018 5.36835 7.79894 5.17432C7.93044 4.98954 7.99725 4.77997 7.99725 4.55189C7.99725 4.30371 7.90964 4.12107 7.72928 3.99343C7.53994 3.85937 7.26684 3.79127 6.91751 3.79127C6.31175 3.79127 5.61068 3.98588 4.83411 4.36982C4.72883 4.42196 4.60061 4.37894 4.54804 4.27351L3.93316 3.03834C3.88188 2.93506 3.92148 2.80983 4.02292 2.75512C4.97586 2.24026 5.99805 1.97912 7.06097 1.97912C7.97574 1.97912 8.71542 2.20393 9.25977 2.64728C9.81026 3.09604 10.0896 3.7018 10.0896 4.44789C10.0893 4.9431 9.97452 5.3779 9.748 5.74061Z" />
</svg>
