<svg width="11" height="11" viewBox="0 0 11 11" xmlns="http://www.w3.org/2000/svg">
<path d="M2.92188 0.644531C3.51878 0.644531 4.06603 0.83368 4.54839 1.20673C5.01084 1.56438 5.31874 2.01992 5.5 2.35116C5.68126 2.0199 5.98916 1.56438 6.45161 1.20673C6.93397 0.83368 7.48122 0.644531 8.07812 0.644531C9.74385 0.644531 11 2.00701 11 3.81378C11 5.76572 9.43287 7.10121 7.06043 9.12295C6.65756 9.46629 6.20091 9.85546 5.72627 10.2705C5.66371 10.3253 5.58336 10.3555 5.5 10.3555C5.41664 10.3555 5.33629 10.3253 5.27373 10.2705C4.79905 9.85542 4.34242 9.46627 3.93931 9.12274C1.56713 7.10121 0 5.76572 0 3.81378C0 2.00701 1.25615 0.644531 2.92188 0.644531Z" />
</svg>
