<svg width="13" height="14" viewBox="0 0 13 14" fill="none" xmlns="http://www.w3.org/2000/svg">
<path d="M12.5939 6.09387H7.44681C7.22335 6.09387 7.04053 5.91105 7.04053 5.68759C7.04053 5.46414 7.22335 5.28131 7.44681 5.28131H12.5939C12.8173 5.28131 13.0002 5.46414 13.0002 5.68759C13.0002 5.91105 12.8173 6.09387 12.5939 6.09387Z" fill="#2A66C5"/>
<path d="M10.5622 8.12526C10.4581 8.12526 10.354 8.08463 10.2753 8.00592C10.1179 7.84594 10.1179 7.58948 10.2753 7.43205L12.0198 5.68758L10.2753 3.94312C10.1179 3.78568 10.1179 3.52668 10.2753 3.36925C10.4353 3.20927 10.6917 3.20927 10.8492 3.36925L12.8806 5.40065C13.038 5.55808 13.038 5.81708 12.8806 5.97452L10.8492 8.00592C10.7705 8.08463 10.6663 8.12526 10.5622 8.12526Z" fill="#2A66C5"/>
<path d="M4.3345 13.0014C4.2177 13.0014 4.10851 12.9862 3.99932 12.9506L0.738922 11.8638C0.294553 11.7089 0 11.2976 0 10.8354V1.08469C0 0.487964 0.487536 0.000427246 1.08426 0.000427246C1.20107 0.000427246 1.31025 0.0156628 1.41944 0.0512123L4.67984 1.13801C5.12421 1.29291 5.41876 1.7068 5.41876 2.16895V11.9197C5.41622 12.5164 4.93123 13.0014 4.3345 13.0014Z" fill="#2A66C5"/>
<path d="M8.25882 4.33417C8.03536 4.33417 7.85254 4.15134 7.85254 3.92789V1.49021C7.85254 1.11694 7.54783 0.812225 7.17456 0.812225H1.08035C0.856898 0.812225 0.674072 0.629399 0.674072 0.405945C0.674072 0.18249 0.856898 -0.000335693 1.08035 -0.000335693H7.17456C7.99727 -0.000335693 8.6651 0.667488 8.6651 1.49021V3.92789C8.6651 4.15134 8.48481 4.33417 8.25882 4.33417Z" fill="#2A66C5"/>
<path d="M7.17749 11.3755H5.0115C4.78805 11.3755 4.60522 11.1927 4.60522 10.9693C4.60522 10.7458 4.78805 10.563 5.0115 10.563H7.17749C7.55076 10.563 7.85547 10.2583 7.85547 9.88501V7.44733C7.85547 7.22387 8.03829 7.04105 8.26175 7.04105C8.4852 7.04105 8.66803 7.22387 8.66803 7.44733V9.88501C8.66549 10.7077 7.99767 11.3755 7.17749 11.3755Z" fill="#2A66C5"/>
</svg>
