<svg width="14" height="14" viewBox="0 0 14 14" fill="none" xmlns="http://www.w3.org/2000/svg">
<g clip-path="url(#clip0)">
<path d="M5.24992 3.79169C5.57192 3.79169 5.83325 3.53035 5.83325 3.20835V2.33335H8.16659V3.20835C8.16659 3.53035 8.42792 3.79169 8.74992 3.79169C9.07192 3.79169 9.33325 3.53035 9.33325 3.20835V2.33335C9.33325 1.68994 8.81 1.16669 8.16659 1.16669H5.83325C5.18984 1.16669 4.66659 1.68994 4.66659 2.33335V3.20835C4.66659 3.53035 4.92792 3.79169 5.24992 3.79169Z" fill="#2A66C5"/>
<path d="M3.5 7.29166V7.82832C3.5 8.06749 3.69833 8.26582 3.9375 8.26582C4.17667 8.26582 4.375 8.06749 4.375 7.82832V7.29166H9.625V7.82832C9.625 8.06749 9.82333 8.26582 10.0625 8.26582C10.3017 8.26582 10.5 8.06749 10.5 7.82832V7.29166H14V11.2292C14 12.1158 13.2825 12.8333 12.3958 12.8333H1.60417C0.717501 12.8333 0 12.1158 0 11.2292V7.29166H3.5ZM1.60417 2.91666H12.3958C13.2825 2.91666 14 3.63416 14 4.52082V6.41666H10.5V5.68749C10.5 5.44832 10.3017 5.24999 10.0625 5.24999C9.82333 5.24999 9.625 5.44832 9.625 5.68749V6.41666H4.375V5.68749C4.375 5.44832 4.17667 5.24999 3.9375 5.24999C3.69833 5.24999 3.5 5.44832 3.5 5.68749V6.41666H0V4.52082C0 3.63416 0.717501 2.91666 1.60417 2.91666Z" fill="#2A66C5"/>
</g>
<defs>
<clipPath id="clip0">
<rect width="14" height="14" fill="white" transform="matrix(-1 0 0 1 14 0)"/>
</clipPath>
</defs>
</svg>
