<svg width="12" height="12" viewBox="0 0 12 12" xmlns="http://www.w3.org/2000/svg">
<path d="M10.0063 0.258896V11.7411C10.0063 11.8857 9.90206 12 9.77094 12H7.82081C7.68968 12 7.58545 11.8823 7.58545 11.7411V0.258896C7.58545 0.114318 7.68968 0 7.82081 0H9.77094C9.90206 0 10.0063 0.11768 10.0063 0.258896Z"/>
<path d="M4.17938 0H2.22926C2.09813 0 1.9939 0.11768 1.9939 0.258896V11.7411C1.9939 11.8857 2.09813 12 2.22926 12H4.17938C4.31051 12 4.41474 11.8823 4.41474 11.7411V0.258896C4.41474 0.11768 4.30715 0 4.17938 0Z"/>
</svg>
