<svg width="12" height="12" viewBox="0 0 12 12" xmlns="http://www.w3.org/2000/svg">
<path d="M5.33995 5.3385L0.853211 5.3386C0.729748 5.33865 0.613309 5.38699 0.525357 5.47475C0.437455 5.56265 0.389015 5.67918 0.389162 5.80265L0.389211 6.19577C0.389113 6.31948 0.437601 6.43577 0.525553 6.52372C0.613357 6.61153 0.729651 6.66002 0.853358 6.65992L5.33995 6.65997L5.3401 11.1467C5.3399 11.2703 5.38844 11.3866 5.47634 11.4745C5.56415 11.5623 5.68049 11.6109 5.8041 11.6107L6.19732 11.6108C6.45332 11.6108 6.66151 11.4026 6.66137 11.1468L6.66142 6.65997L11.1481 6.66002C11.2717 6.65992 11.3881 6.61153 11.476 6.52367C11.5638 6.43582 11.6122 6.31943 11.6123 6.19587L11.6122 5.8027C11.6123 5.67914 11.5638 5.5627 11.476 5.47494C11.3881 5.38704 11.2717 5.33855 11.1482 5.3387L6.66142 5.3386L6.66142 0.851957C6.66146 0.728298 6.61303 0.611956 6.52522 0.524151L6.52512 0.524054C6.43727 0.4362 6.32093 0.387761 6.19727 0.38781L5.80415 0.387762C5.68068 0.387811 5.56419 0.4362 5.47634 0.524054C5.38849 0.611908 5.34015 0.728348 5.34005 0.85186L5.33995 5.3385Z"/>
</svg>
