<svg width="21" height="21" viewBox="0 0 21 21" xmlns="http://www.w3.org/2000/svg">
<path d="M5.76706 16.369C2.86034 14.0041 2.42156 9.71329 4.78576 6.80739C7.15029 3.90109 11.4396 3.45906 14.3464 5.82393C14.5394 5.98101 14.7255 6.15088 14.9016 6.33044L15.5949 5.47831C15.684 5.36881 15.8326 5.32411 15.9667 5.36276C16.1033 5.40682 16.1997 5.5229 16.2148 5.66583L16.5596 9.05717C16.5794 9.24979 16.4414 9.41939 16.2474 9.44084L12.8543 9.79791C12.7119 9.81066 12.5772 9.74076 12.508 9.61396C12.4432 9.49009 12.4561 9.33637 12.5448 9.22728L13.3138 8.28211C13.1495 8.08963 12.9683 7.9155 12.7736 7.75708C10.9322 6.25898 8.21502 6.5379 6.71726 8.37884C5.21983 10.2194 5.4989 12.9381 7.33984 14.4358C9.18077 15.9336 11.8989 15.6527 13.396 13.8126C13.5176 13.6631 13.7385 13.6397 13.8896 13.7626L15.2764 14.8909C15.4267 15.0132 15.4495 15.2349 15.3279 15.3843C12.9637 18.2902 8.67172 18.7322 5.76706 16.369Z" />
</svg>
