<svg width="10" height="10" viewBox="0 0 10 10" fill="none" xmlns="http://www.w3.org/2000/svg">
<path d="M0.681925 8.40895H2.27286V9.77276C2.27286 9.83912 2.29409 9.89344 2.33681 9.9359C2.3794 9.97863 2.43386 10 2.5002 10H3.68622C3.74777 10 3.80103 9.97863 3.84602 9.9359C3.89101 9.89344 3.91343 9.8391 3.91343 9.77276V8.40895H7.50007C7.56627 8.40895 7.62075 8.38785 7.66344 8.34512C7.70618 8.30242 7.72739 8.24806 7.72739 8.18171V7.27258C7.72739 7.20662 7.70618 7.15191 7.66344 7.10945C7.62086 7.06671 7.56627 7.04534 7.50007 7.04534H3.91332V6.20724H6.32809C7.27501 6.20724 8.04785 5.9187 8.64698 5.34081C9.24587 4.76352 9.54546 4.0178 9.54546 3.10362C9.54546 2.19004 9.24587 1.44431 8.64698 0.866431C8.04797 0.289124 7.27499 0 6.32809 0H2.50008C2.43372 0 2.37938 0.0213476 2.33669 0.0638272C2.29409 0.106542 2.27274 0.161234 2.27274 0.227218V4.69465H0.681925C0.615589 4.69465 0.56123 4.7171 0.518535 4.76207C0.475957 4.80706 0.45459 4.86032 0.45459 4.92185V5.97998C0.45459 6.04634 0.47582 6.1007 0.518535 6.14339C0.56125 6.18613 0.615471 6.20722 0.681925 6.20722H2.27286V7.04532H0.681925C0.615589 7.04532 0.56123 7.06669 0.518535 7.10943C0.475957 7.15189 0.45459 7.20648 0.45459 7.27256V8.18169C0.45459 8.24804 0.47582 8.3024 0.518535 8.3451C0.56123 8.38785 0.615569 8.40895 0.681925 8.40895ZM3.91332 1.51294H6.18604C6.68788 1.51294 7.09264 1.65967 7.40051 1.95322C7.70821 2.24679 7.86214 2.63044 7.86214 3.10374C7.86214 3.57727 7.70821 3.96103 7.40051 4.25425C7.09264 4.54806 6.68786 4.69479 6.18604 4.69479H3.91332V1.51294Z" fill="#42A5F5"/>
</svg>
