<svg width="12" height="10" viewBox="0 0 12 10" fill="none" xmlns="http://www.w3.org/2000/svg">
<path d="M11.808 1.54824L11.4149 1.15517C11.2914 1.03156 11.1267 0.963562 10.9509 0.963562C10.7751 0.963562 10.6103 1.03156 10.4868 1.15517L4.96361 6.67829L1.51278 3.22737C1.38927 3.10395 1.22449 3.03585 1.04868 3.03585C0.872976 3.03585 0.708293 3.10395 0.584683 3.22737L0.191512 3.62034C0.0679024 3.74415 0 3.90902 0 4.08463C0 4.26034 0.0679024 4.42512 0.191512 4.54873L4.08771 8.44473C4.09288 8.45205 4.09834 8.45888 4.10468 8.46512L4.49785 8.85176C4.62137 8.97488 4.78615 9.03644 4.96332 9.03644H4.96537C5.14127 9.03644 5.30605 8.97488 5.42937 8.85176L5.82263 8.46171C5.82898 8.45546 5.83434 8.45029 5.83756 8.44502L11.8079 2.47527C12.064 2.21976 12.064 1.80405 11.808 1.54824Z" fill="#70CC45"/>
</svg>
