<svg width="12" height="12" viewBox="0 0 12 12" fill="none" xmlns="http://www.w3.org/2000/svg">
<path d="M7.41896 1.65506C7.41896 2.56752 6.67747 3.30902 5.765 3.30902C4.85144 3.30902 4.11068 2.56752 4.11068 1.65506C4.11068 0.741493 4.85181 0 5.765 0C6.6782 0 7.41896 0.741493 7.41896 1.65506ZM5.76611 10.1556C5.25759 10.1549 4.8441 10.5662 4.84263 11.0758C4.84153 11.5861 5.25245 11.9996 5.7617 12.0004C6.27168 12.0018 6.68517 11.5905 6.68591 11.0809C6.68774 10.5706 6.27572 10.1571 5.76611 10.1556ZM11.0784 6.36634C11.0784 6.03394 10.8091 5.76427 10.4763 5.76427C10.1431 5.76427 9.87312 6.03284 9.87312 6.36634C9.87312 6.69801 10.142 6.96915 10.4763 6.96915C10.8087 6.96878 11.0784 6.69875 11.0784 6.36634ZM2.1056 6.36634C2.1056 5.78482 1.63451 5.31336 1.05262 5.31336C0.470725 5.31336 0 5.78482 0 6.36634C0 6.9475 0.470725 7.41896 1.05262 7.41896C1.63451 7.41896 2.1056 6.9475 2.1056 6.36634ZM9.43138 2.69814C9.24646 2.51249 8.94744 2.51322 8.76179 2.69814C8.57651 2.88379 8.57651 3.18537 8.76179 3.37029C8.94744 3.55594 9.24646 3.55594 9.43138 3.37029C9.61629 3.18464 9.61629 2.88379 9.43138 2.69814ZM3.19821 8.93533C2.77555 8.51487 2.09056 8.51487 1.66827 8.9346C1.24597 9.35506 1.2456 10.0397 1.66827 10.4609C2.09093 10.8821 2.77555 10.8828 3.19748 10.4609C3.62088 10.0408 3.62088 9.35653 3.19821 8.93533ZM9.53741 10.1376C9.77882 9.89476 9.77882 9.50145 9.53667 9.25857C9.29526 9.01715 8.90342 9.01715 8.66163 9.26003C8.42022 9.50218 8.42022 9.8955 8.66163 10.1387C8.90415 10.3805 9.29526 10.3805 9.53741 10.1376ZM3.22536 3.8256C3.66123 3.38937 3.66123 2.68126 3.22536 2.24392C2.78949 1.80769 2.08249 1.80769 1.64589 2.24392C1.21002 2.68016 1.21002 3.38827 1.64625 3.8256C2.08249 4.26294 2.78913 4.26257 3.22536 3.8256Z" fill="#45BCCC"/>
</svg>
