<svg width="10" height="7" viewBox="0 0 10 7" fill="none" xmlns="http://www.w3.org/2000/svg">
<path d="M9.84001 0.506979L9.51245 0.166145C9.40952 0.0589629 9.27229 0 9.12578 0C8.97928 0 8.84196 0.0589629 8.73903 0.166145L4.13635 4.95525L1.26065 1.96295C1.15772 1.85593 1.02041 1.79689 0.873903 1.79689C0.72748 1.79689 0.590245 1.85593 0.487236 1.96295L0.159594 2.3037C0.0565854 2.41105 0 2.55401 0 2.70629C0 2.85864 0.0565854 3.00152 0.159594 3.10871L3.40643 6.48693C3.41074 6.49328 3.41529 6.4992 3.42057 6.50461L3.74822 6.83986C3.85114 6.94662 3.98846 7 4.1361 7H4.13781C4.28439 7 4.42171 6.94662 4.52448 6.83986L4.8522 6.50165C4.85748 6.49624 4.86196 6.49175 4.86464 6.48718L9.83993 1.3108C10.0533 1.08925 10.0533 0.728788 9.84001 0.506979Z" fill="#45CC63"/>
</svg>
