<?xml version="1.0" encoding="utf-8"?>
<!-- Generator: Adobe Illustrator 23.0.3, SVG Export Plug-In . SVG Version: 6.00 Build 0)  -->
<svg version="1.1" id="Слой_1" xmlns="http://www.w3.org/2000/svg" xmlns:xlink="http://www.w3.org/1999/xlink" x="0px" y="0px"
	 viewBox="0 0 352 321" style="enable-background:new 0 0 352 321;" xml:space="preserve">
<style type="text/css">
	.st0{clip-path:url(#SVGID_2_);fill:#CCDEF5;}
	.st1{clip-path:url(#SVGID_2_);}
	.st2{fill:#31313F;}
	.st3{fill:#FFFFFF;}
	.st4{fill:#DA975D;}
	.st5{fill:#CC8346;}
	.st6{fill:#BFCAD2;}
	.st7{fill:#B84B43;}
	.st8{fill:#ACD4E6;}
	.st9{fill:#4F6BA6;}
</style>
<g id="likes">
	<g>
		<defs>
			<circle id="SVGID_1_" cx="192" cy="158.3" r="153"/>
		</defs>
		<clipPath id="SVGID_2_">
			<use xlink:href="#SVGID_1_"  style="overflow:visible;"/>
		</clipPath>
		<circle class="st0" cx="192" cy="158.3" r="153"/>
		<g class="st1">
			<path class="st2" d="M144.6,144.2c-0.4-1.1-9.9-55.7-11-76.9C132.5,46,167.7,43,167.7,43s28.8-15.5,49.7-7.6
				c20.8,8,35,21.4,44.5,38c9.5,16.7-8.3,68.7-8.3,68.7L144.6,144.2z"/>
			<path class="st3" d="M79.3,319.6c-0.1-0.9,2.4-22.4,2.5-23.2c4.8-45.2,60.6-58,116.2-58c65.4,0,109.7,12,116.8,59
				c0.2,1.4,4,22.9,3.8,24.4C197.4,323.4,79.3,319.6,79.3,319.6z"/>
			<path class="st4" d="M209.2,273.5c-6.5,9.6-11.2,10-18.3,0c-5.6-7.9-24.3-26-24.3-35.1l7.7-91c0-9.1,7.5-16.6,16.6-16.6h18.3
				c9.1,0,16.6,7.5,16.6,16.6l3.6,91C229.4,247.5,215,264.9,209.2,273.5z"/>
			<path class="st5" d="M209.2,130.8H191c-9.1,0-16.6,7.5-16.6,16.6l-6.7,80.8c20.5,6.5,48.2-6.7,60.4-21.4l-2.3-59.4
				C225.8,138.2,218.4,130.8,209.2,130.8z"/>
			<path class="st6" d="M137.5,245l29.3,54.1c0,0,15.7-12.9,17.2-10.4c1.5,2.5-2.8,34.4-2.8,34.4s34.9,0.5,36.4-1
				c1.5-1.5-7.1-34.6-3.5-34.6c3.5,0,14.2,9.6,14.2,9.6l32.7-52.1l-7.2-1.7l-53.5,28.8l-57.3-28.2L137.5,245z"/>
			<polygon class="st7" points="170.9,270 192.7,284.5 185.9,323.2 215.2,321.6 207.9,286.4 225.9,270 217.5,262 179.4,262 			"/>
			<path class="st3" d="M168.2,218.5l-26.9,25.6c0,0,27.4,48.7,28.9,48.7c1.5,0,23.2-26.9,23.2-26.9l13.9-0.2l22,23.1l25.5-45.2
				l-26-27.6c0,0-22.2,43-26.3,44c-4,1-4.1,1.5-7.3-1C192,256.4,168.2,218.5,168.2,218.5z"/>
			<ellipse class="st4" cx="200.1" cy="131.7" rx="55.2" ry="75.2"/>
			<path class="st4" d="M150.6,130.5c5.2,10.9,3.5,22.5-3.8,25.9c-7.2,3.4-17.3-2.6-22.5-13.4c-5.2-10.9-3.5-22.5,3.8-25.9
				C135.4,113.6,145.4,119.7,150.6,130.5z"/>
			<path class="st4" d="M247.2,130.5c-5.2,10.9-3.5,22.5,3.8,25.9c7.2,3.4,17.3-2.6,22.5-13.4c5.2-10.9,3.5-22.5-3.8-25.9
				C262.4,113.6,252.3,119.7,247.2,130.5z"/>
			<path class="st3" d="M224.6,162.5c0,0-11,17.8-24.5,17.8c-13.5,0-24.5-17.8-24.5-17.8H224.6z"/>
			<path class="st2" d="M167.7,80.5c22.7-15.9,33-13.3,50,12.9c17.1,26.2,37.5,26.6,37.5,26.6l2.7-27.1c0,0-25.4-49.2-59.5-42.7
				c-34.1,6.4-53.5,37.1-53.5,37.1s-1.7,57.5,3.1,59.5c4.8,2,5.3-18.6,8.7-22.7c3.4-4.2-3.4-23.9,1.1-33
				C162.4,82.1,167.7,80.5,167.7,80.5z"/>
			<path class="st2" d="M240.9,110.1c7.9,8.7,4.9,43.2,9.1,42.8c4.2-0.4,5.7-33,4.5-36.4C253.4,113.1,240.9,110.1,240.9,110.1z"/>
		</g>
	</g>
	<g>
		<path class="st8" d="M192,315.3c-86.6,0-157-70.4-157-157s70.4-157,157-157s157,70.4,157,157S278.6,315.3,192,315.3z M192,9.3
			c-82.2,0-149,66.8-149,149s66.8,149,149,149c82.2,0,149-66.8,149-149S274.1,9.3,192,9.3z"/>
	</g>
	<g>
		
			<ellipse transform="matrix(0.9732 -0.2298 0.2298 0.9732 -51.9155 24.0749)" class="st9" cx="77.4" cy="235" rx="74.5" ry="74.5"/>
		<path class="st3" d="M75.8,185.9c9.7-1.3,18,22.7,17.3,30.3c-0.7,7.7,18-1,27,5.7c9,6.7,6.3,41.3,0,43.7
			c-6.3,2.3-31.9,2.7-40.1-1.7c-8.2-4.3-13.8-3.5-13.8-3.5L62,224.1c0,0,5.1-1.5,10.8-6.5C78.4,212.5,75.8,185.9,75.8,185.9z
			 M32.8,270.9c2.3,2,28.7,8.3,30-5c1.3-13.3-5.3-41.7-5.3-41.7s-18.3-0.9-24.7,2.3C30.3,227.8,30.4,268.9,32.8,270.9z"/>
	</g>
</g>
<g>
</g>
<g>
</g>
<g>
</g>
<g>
</g>
<g>
</g>
<g>
</g>
<g>
</g>
<g>
</g>
<g>
</g>
<g>
</g>
<g>
</g>
<g>
</g>
<g>
</g>
<g>
</g>
<g>
</g>
</svg>
