<?xml version="1.0" encoding="utf-8"?>
<!-- Generator: Adobe Illustrator 23.0.3, SVG Export Plug-In . SVG Version: 6.00 Build 0)  -->
<svg version="1.1" id="Слой_1" xmlns="http://www.w3.org/2000/svg" xmlns:xlink="http://www.w3.org/1999/xlink" x="0px" y="0px"
	 viewBox="0 0 352 321" style="enable-background:new 0 0 352 321;" xml:space="preserve">
<style type="text/css">
	.st0{clip-path:url(#SVGID_2_);fill:#CCDEF5;}
	.st1{clip-path:url(#SVGID_2_);}
	.st2{fill:#4F6BA6;}
	.st3{fill:#3C3B4D;}
	.st4{fill:#DA975D;}
	.st5{fill:#CC8346;}
	.st6{fill:#FFFFFF;}
	.st7{fill:#ACD4E6;}
	.st8{fill:#F37168;}
</style>
<g id="reposts">
	<g>
		<defs>
			<circle id="SVGID_1_" cx="159.8" cy="158.2" r="153"/>
		</defs>
		<clipPath id="SVGID_2_">
			<use xlink:href="#SVGID_1_"  style="overflow:visible;"/>
		</clipPath>
		<circle class="st0" cx="159.8" cy="158.2" r="153"/>
		<g class="st1">
			<path class="st2" d="M38.7,300.5c18.5-39.8,49.8-52.6,101.3-52.6c61.2,0,101.8,37.8,110.8,70.1
				C141.1,319.5,38.7,300.5,38.7,300.5z"/>
			<path class="st3" d="M118.5,54.2c-25.9,7.3-24.8,21.8-33.4,35.4c-8.6,13.5-27.4,22.5-29.7,31.6c-2.3,9,5.8,27.8-3.8,38.3
				c-9.5,10.5-12.8,15.8-9,26.3c3.8,10.5,12,27,12.8,29.3c0.8,2.3,11.3,18,24,20.3c12.8,2.3,36.8,6,48.8,11.3
				c12,5.3,50.7-6.7,72.1-6c21.5,0.8,36.1-15.1,34.6-25.6c-1.5-10.5,15.8-31.6,15.8-49.6c0-19.4-22.5-33.8-28.5-46.6
				c-6-12.8,0.8-35.3-21.8-48.7c-14.2-8.4-24-7.7-35.3-11.4C153.8,55.1,135.1,49.6,118.5,54.2z"/>
			<path class="st4" d="M150.1,279.7c-5.9,8.7-10.2,9-16.5,0c-5.1-7.2-15-23.5-15-31.7v-82.5c0-8.3,6.8-15,15-15h16.5
				c8.3,0,15,6.8,15,15V248C165.1,256.2,155.3,271.9,150.1,279.7z"/>
			<path class="st5" d="M150.1,150.5h-16.5c-8.3,0-15,6.8-15,15v73.6c18.6,5.9,35.5-5.8,46.6-19.1v-54.5
				C165.1,157.2,158.3,150.5,150.1,150.5z"/>
			<ellipse class="st4" cx="141.8" cy="151.3" rx="50" ry="68.1"/>
			<path class="st3" d="M165.1,97.1C133.6,150.5,87,145.2,87,145.2s1.1-70.6,38.1-74.4c37-3.8,58.8,11.1,66.3,35.6
				c7.5,24.5,0,40.7,0,40.7s-12-9.4-18-24.4C167.4,107.6,165.1,97.1,165.1,97.1z"/>
			<path class="st4" d="M97,150.2c4.7,9.8,3.1,20.3-3.4,23.5c-6.6,3.1-15.7-2.3-20.3-12.2c-4.7-9.8-3.1-20.3,3.4-23.5
				C83.2,135,92.3,140.4,97,150.2z"/>
			<path class="st4" d="M184.4,150.2c-4.7,9.8-3.1,20.3,3.4,23.5c6.6,3.1,15.7-2.3,20.3-12.2c4.7-9.8,3.1-20.3-3.4-23.5
				C198.2,135,189.1,140.4,184.4,150.2z"/>
			<path class="st6" d="M160.6,188.2c0,0-8.4,10.9-18.8,10.9c-10.4,0-18.8-10.9-18.8-10.9H160.6z"/>
		</g>
	</g>
	<g>
		<path class="st7" d="M159.8,315.2c-86.6,0-157-70.4-157-157s70.4-157,157-157s157,70.4,157,157S246.3,315.2,159.8,315.2z
			 M159.8,9.2c-82.2,0-149,66.8-149,149s66.8,149,149,149s149-66.8,149-149S241.9,9.2,159.8,9.2z"/>
	</g>
	<g>
		
			<ellipse transform="matrix(0.7071 -0.7071 0.7071 0.7071 22.9402 218.4955)" class="st8" cx="275.2" cy="81.6" rx="74.5" ry="74.5"/>
		<path class="st6" d="M239.7,121.1c-11-65.9,39.4-67.5,39.4-67.5V34.1l40,40l-38.5,38.5V90.2c0,0-19.3,0.8-26.7,11.4
			C246.5,112.1,239.7,121.1,239.7,121.1z"/>
	</g>
</g>
<g>
</g>
<g>
</g>
<g>
</g>
<g>
</g>
<g>
</g>
<g>
</g>
<g>
</g>
<g>
</g>
<g>
</g>
<g>
</g>
<g>
</g>
<g>
</g>
<g>
</g>
<g>
</g>
<g>
</g>
</svg>
