<?xml version="1.0" encoding="utf-8"?>
<!-- Generator: Adobe Illustrator 23.0.3, SVG Export Plug-In . SVG Version: 6.00 Build 0)  -->
<svg version="1.1" id="Слой_1" xmlns="http://www.w3.org/2000/svg" xmlns:xlink="http://www.w3.org/1999/xlink" x="0px" y="0px"
	 viewBox="0 0 352 321" style="enable-background:new 0 0 352 321;" xml:space="preserve">
<style type="text/css">
	.st0{clip-path:url(#SVGID_2_);fill:#CCDEF5;}
	.st1{clip-path:url(#SVGID_2_);}
	.st2{fill:#6F4F38;}
	.st3{fill:#B84B43;}
	.st4{fill:#DA975D;}
	.st5{fill:#CC8346;}
	.st6{fill:#FFFFFF;}
	.st7{fill:#ACD4E6;}
	.st8{fill:#C1C765;}
</style>
<g id="friends">
	<g>
		<defs>
			
				<ellipse id="SVGID_1_" transform="matrix(0.7071 -0.7071 0.7071 0.7071 -57.6135 181.4525)" cx="190.2" cy="160.3" rx="155.4" ry="155.4"/>
		</defs>
		<clipPath id="SVGID_2_">
			<use xlink:href="#SVGID_1_"  style="overflow:visible;"/>
		</clipPath>
		
			<ellipse transform="matrix(0.7071 -0.7071 0.7071 0.7071 -57.6135 181.4525)" class="st0" cx="190.2" cy="160.3" rx="155.4" ry="155.4"/>
		<g class="st1">
			<path class="st2" d="M109.3,137.3c0,42.7,25.7,111.6,86.4,109.4c60.7-2.2,74.1-67.9,76.4-86.4
				C274.5,141.7,109.3,137.3,109.3,137.3z"/>
			<path class="st3" d="M84.1,303.5c20-43.1,53.9-56.9,109.6-56.9c66.3,0,100.7,24,110.4,59c-39,0.5-76.1,39.3-108.4,39
				C129.8,344,84.1,303.5,84.1,303.5z"/>
			<path class="st4" d="M204.7,281c-6.3,9.4-11,9.8-17.9,0c-5.5-7.8-16.3-25.4-16.3-34.3v-89.2c0-8.9,7.3-16.3,16.3-16.3h17.9
				c8.9,0,16.3,7.3,16.3,16.3v89.2C220.9,255.7,210.3,272.6,204.7,281z"/>
			<path class="st5" d="M204.7,141.2h-17.9c-8.9,0-16.3,7.3-16.3,16.3v79.6c20.1,6.4,38.4-6.3,50.4-20.6v-59
				C220.9,148.5,213.6,141.2,204.7,141.2z"/>
			<path class="st4" d="M249.8,142.1c0,40.7-24.2,73.7-54.1,73.7c-29.9,0-54.1-33-54.1-73.7c0-40.7,24.2-73.7,54.1-73.7
				C225.6,68.5,249.8,101.4,249.8,142.1z"/>
			<path class="st2" d="M225.4,86.1c-6.4,22.7-20.5,22.4-40.1,29.8c-19.6,7.4-29,14.9-35.4,29.4c-8.2,18.5,3.7,72.4,3.7,72.4
				s-49.7-37.2-44-95.7c5.7-58.5,40.2-81.1,72.7-81.1c32.5,0,44.8,19.8,44.8,19.8s17.3,0.1,33.6,19.4c22,26,15.2,89.3,0,111.9
				c-15.2,22.7-25.4,29.8-25,28.7c0.3-1,14.2-53,6.8-85.2C235.1,103.4,225.4,86.1,225.4,86.1z"/>
			<path class="st6" d="M216,182.1c0,0-9.1,11.8-20.3,11.8c-11.2,0-20.3-11.8-20.3-11.8H216z"/>
		</g>
	</g>
	<g>
		<path class="st7" d="M190.2,319.5C102.4,319.5,31,248.1,31,160.3C31,72.5,102.4,1,190.2,1C278,1,349.5,72.5,349.5,160.3
			C349.5,248.1,278,319.5,190.2,319.5z M190.2,8.7c-83.6,0-151.6,68-151.6,151.6s68,151.6,151.6,151.6c83.6,0,151.6-68,151.6-151.6
			S273.8,8.7,190.2,8.7z"/>
	</g>
	<g>
		<g>
			
				<ellipse transform="matrix(0.9732 -0.2298 0.2298 0.9732 -16.3037 19.9285)" class="st8" cx="77.4" cy="80" rx="74.5" ry="74.5"/>
		</g>
		<g id="User_1_">
			<path class="st6" d="M115,109.4c0-15.5-25.9-24.2-38-24.2s-38,8.6-38,24.2s25.9,15.5,38,15.5S115,124.9,115,109.4z"/>
			<path class="st6" d="M92.5,92.1H61.5l1.7-1.7c2.2-2.2,3.5-5.2,3.5-8.3v-5.5h20.7v5.2c0,4.4,1.8,6.9,4.9,10.1L92.5,92.1z"/>
			<path class="st6" d="M97.7,57.5c0-12.4-5.2-22.5-20.7-22.5S56.3,45.1,56.3,57.5S66.6,81.7,77,81.7S97.7,69.9,97.7,57.5z"/>
		</g>
	</g>
</g>
<g>
</g>
<g>
</g>
<g>
</g>
<g>
</g>
<g>
</g>
<g>
</g>
<g>
</g>
<g>
</g>
<g>
</g>
<g>
</g>
<g>
</g>
<g>
</g>
<g>
</g>
<g>
</g>
<g>
</g>
</svg>
