<?xml version="1.0" encoding="utf-8"?>
<!-- Generator: Adobe Illustrator 23.0.3, SVG Export Plug-In . SVG Version: 6.00 Build 0)  -->
<svg version="1.1" id="Слой_1" xmlns="http://www.w3.org/2000/svg" xmlns:xlink="http://www.w3.org/1999/xlink" x="0px" y="0px"
	 viewBox="0 0 1599.2 1576.8" style="enable-background:new 0 0 1599.2 1576.8;" xml:space="preserve">
<style type="text/css">
	.st0{fill:#63ACC2;}
	.st1{clip-path:url(#SVGID_2_);fill:#C6E0F7;}
	.st2{clip-path:url(#SVGID_2_);}
	.st3{fill:#2E2D3D;}
	.st4{fill:#FFFFFF;}
	.st5{fill:#F09959;}
	.st6{fill:#E38540;}
	.st7{fill:#BDCCD4;}
	.st8{fill:#D54A41;}
	.st9{fill:#9BD6E8;}
	.st10{fill:#3E6BAB;}
	.st11{clip-path:url(#SVGID_4_);fill:#D5EBFE;}
	.st12{clip-path:url(#SVGID_4_);}
	.st13{fill:#255096;}
	.st14{fill:#FFC34E;}
	.st15{fill:#FB8627;}
	.st16{fill:url(#SVGID_5_);}
	.st17{fill:url(#SVGID_6_);}
	.st18{fill:url(#SVGID_7_);}
	.st19{fill:url(#SVGID_8_);}
	.st20{fill:#0F2D5C;}
	.st21{fill:#F37168;}
	.st22{clip-path:url(#SVGID_10_);fill:#C6E0F7;}
	.st23{clip-path:url(#SVGID_10_);}
	.st24{fill:#3A384D;}
	.st25{fill:#C1C765;}
	.st26{clip-path:url(#SVGID_12_);fill:#D5EBFE;}
	.st27{clip-path:url(#SVGID_12_);}
	.st28{fill:#303C60;}
	.st29{fill:#58556E;}
	.st30{fill:#7EC1D6;}
	.st31{fill:#8DDAF2;}
	.st32{fill:#2E5B9A;}
	.st33{fill:#FFCB30;}
	.st34{fill:#4578BF;}
</style>
<g>
	<g>
		<g>
			<g>
				<path class="st0" d="M164.1,747.3c-1.1,0-2.1-0.7-2.4-1.8l-7.1-24c-0.3-1.2,0.2-2.4,1.3-3l22.5-10.8c1.2-0.6,2.7-0.1,3.3,1.2
					c0.6,1.2,0.1,2.7-1.2,3.3l-20.6,9.9l6.5,21.9c0.4,1.3-0.4,2.7-1.7,3.1C164.6,747.3,164.3,747.3,164.1,747.3z"/>
			</g>
			<g>
				<path class="st0" d="M585.8,1117c-0.9,0.6-2.1,0.5-3-0.3l-34.8-31.3c-1-0.9-1.1-2.5-0.2-3.5c0.9-1,2.5-1.1,3.5-0.2l34.8,31.3
					c1,0.9,1.1,2.5,0.2,3.5C586.2,1116.7,586,1116.9,585.8,1117z M516.2,1054.4c-0.9,0.6-2.1,0.5-3-0.3l-34.8-31.3
					c-1-0.9-1.1-2.5-0.2-3.5c0.9-1,2.5-1.1,3.5-0.2l34.8,31.3c1,0.9,1.1,2.5,0.2,3.5C516.6,1054.1,516.4,1054.2,516.2,1054.4z
					 M446.5,991.7c-0.9,0.6-2.1,0.5-3-0.3l-34.8-31.3c-1-0.9-1.1-2.5-0.2-3.5c0.9-1,2.5-1.1,3.5-0.2l34.8,31.3
					c1,0.9,1.1,2.5,0.2,3.5C446.9,991.4,446.7,991.6,446.5,991.7z M376.9,929.1c-0.9,0.6-2.1,0.5-3-0.3L339,897.5
					c-1-0.9-1.1-2.5-0.2-3.5c0.9-1,2.5-1.1,3.5-0.2l34.8,31.3c1,0.9,1.1,2.5,0.2,3.5C377.2,928.8,377.1,928.9,376.9,929.1z
					 M307.2,866.4c-0.9,0.6-2.1,0.5-3-0.3l-34.8-31.3c-1-0.9-1.1-2.5-0.2-3.5c0.9-1,2.5-1.1,3.5-0.2l34.8,31.3
					c1,0.9,1.1,2.5,0.2,3.5C307.6,866.1,307.4,866.3,307.2,866.4z M237.5,803.8c-0.9,0.6-2.1,0.5-3-0.3l-34.8-31.3
					c-1-0.9-1.1-2.5-0.2-3.5c0.9-1,2.5-1.1,3.5-0.2l34.8,31.3c1,0.9,1.1,2.5,0.2,3.5C237.9,803.5,237.7,803.6,237.5,803.8z"/>
			</g>
			<g>
				<path class="st0" d="M505.7,1295.4c-1,0-2-0.6-2.3-1.6c-0.5-1.3,0.2-2.7,1.5-3.2l46.2-17.1c1.3-0.5,2.7,0.2,3.2,1.5
					c0.5,1.3-0.2,2.7-1.5,3.2l-46.2,17.1C506.3,1295.3,506,1295.4,505.7,1295.4z M598.2,1261.2c-1,0-2-0.6-2.3-1.6
					c-0.5-1.3,0.2-2.7,1.5-3.2l46.2-17.1c1.3-0.5,2.7,0.2,3.2,1.5c0.5,1.3-0.2,2.7-1.5,3.2L599,1261
					C598.7,1261.1,598.5,1261.2,598.2,1261.2z"/>
			</g>
			<g>
				<path class="st0" d="M224.9,690.8c-0.9,0-1.8-0.5-2.3-1.4c-0.6-1.2-0.1-2.7,1.2-3.3l45.4-21.7c1.2-0.6,2.7-0.1,3.3,1.2
					c0.6,1.2,0.1,2.7-1.2,3.3L226,690.5C225.7,690.7,225.3,690.8,224.9,690.8z M315.7,647.3c-0.9,0-1.8-0.5-2.3-1.4
					c-0.6-1.2-0.1-2.7,1.2-3.3l45.4-21.7c1.2-0.6,2.7-0.1,3.3,1.2c0.6,1.2,0.1,2.7-1.2,3.3L316.8,647
					C316.4,647.2,316.1,647.3,315.7,647.3z M406.5,603.8c-0.9,0-1.8-0.5-2.3-1.4c-0.6-1.2-0.1-2.7,1.2-3.3l45.4-21.7
					c1.2-0.6,2.7-0.1,3.3,1.2c0.6,1.2,0.1,2.7-1.2,3.3l-45.4,21.7C407.2,603.7,406.8,603.8,406.5,603.8z M497.2,560.3
					c-0.9,0-1.8-0.5-2.3-1.4c-0.6-1.2-0.1-2.7,1.2-3.3l45.4-21.7c1.2-0.6,2.7-0.1,3.3,1.2c0.6,1.2,0.1,2.7-1.2,3.3l-45.4,21.7
					C498,560.2,497.6,560.3,497.2,560.3z M588,516.8c-0.9,0-1.8-0.5-2.3-1.4c-0.6-1.2-0.1-2.7,1.2-3.3l45.4-21.7
					c1.2-0.6,2.7-0.1,3.3,1.2c0.6,1.2,0.1,2.7-1.2,3.3l-45.4,21.7C588.7,516.7,588.4,516.8,588,516.8z M678.8,473.3
					c-0.9,0-1.8-0.5-2.3-1.4c-0.6-1.2-0.1-2.7,1.2-3.3l45.4-21.7c1.2-0.6,2.7-0.1,3.3,1.2c0.6,1.2,0.1,2.7-1.2,3.3l-45.4,21.7
					C679.5,473.2,679.1,473.3,678.8,473.3z M769.5,429.8c-0.9,0-1.8-0.5-2.3-1.4c-0.6-1.2-0.1-2.7,1.2-3.3l30-14.4
					c0.1-0.1,0.2-0.1,0.4-0.1l16.3-4.8c1.3-0.4,2.7,0.4,3.1,1.7c0.4,1.3-0.4,2.7-1.7,3.1l-16.1,4.7l-29.8,14.3
					C770.3,429.8,769.9,429.8,769.5,429.8z M864.2,396.6c-1.1,0-2.1-0.7-2.4-1.8c-0.4-1.3,0.4-2.7,1.7-3.1l48.3-14.1
					c1.3-0.4,2.7,0.4,3.1,1.7c0.4,1.3-0.4,2.7-1.7,3.1l-48.3,14.1C864.7,396.5,864.4,396.6,864.2,396.6z M960.8,368.4
					c-1.1,0-2.1-0.7-2.4-1.8c-0.4-1.3,0.4-2.7,1.7-3.1l48.3-14.1c1.3-0.4,2.7,0.4,3.1,1.7c0.4,1.3-0.4,2.7-1.7,3.1l-48.3,14.1
					C961.3,368.3,961,368.4,960.8,368.4z M1057.4,340.1c-1.1,0-2.1-0.7-2.4-1.8c-0.4-1.3,0.4-2.7,1.7-3.1l48.3-14.1
					c1.3-0.4,2.7,0.4,3.1,1.7c0.4,1.3-0.4,2.7-1.7,3.1l-48.3,14.1C1057.9,340.1,1057.7,340.1,1057.4,340.1z M1154,311.9
					c-1.1,0-2.1-0.7-2.4-1.8c-0.4-1.3,0.4-2.7,1.7-3.1l48.3-14.1c1.3-0.4,2.7,0.4,3.1,1.7c0.4,1.3-0.4,2.7-1.7,3.1l-48.3,14.1
					C1154.5,311.9,1154.3,311.9,1154,311.9z M1250.6,283.7c-1.1,0-2.1-0.7-2.4-1.8c-0.4-1.3,0.4-2.7,1.7-3.1l48.3-14.1
					c1.3-0.4,2.7,0.4,3.1,1.7c0.4,1.3-0.4,2.7-1.7,3.1l-48.3,14.1C1251.1,283.7,1250.9,283.7,1250.6,283.7z M1347.3,255.5
					c-1.1,0-2.1-0.7-2.4-1.8c-0.4-1.3,0.4-2.7,1.7-3.1l48.3-14.1c1.3-0.4,2.7,0.4,3.1,1.7c0.4,1.3-0.4,2.7-1.7,3.1l-48.3,14.1
					C1347.7,255.5,1347.5,255.5,1347.3,255.5z M1594.5,253.8c-0.1,0-0.2,0-0.3,0l-50-5.9c-1.4-0.2-2.4-1.4-2.2-2.8
					c0.2-1.4,1.4-2.4,2.8-2.2l50,5.9c1.4,0.2,2.4,1.4,2.2,2.8C1596.9,252.8,1595.8,253.8,1594.5,253.8z M1494.6,242
					c-0.1,0-0.2,0-0.3,0l-50-5.9c-1.4-0.2-2.4-1.4-2.2-2.8c0.2-1.4,1.4-2.4,2.8-2.2l50,5.9c1.4,0.2,2.4,1.4,2.2,2.8
					C1496.9,241,1495.8,242,1494.6,242z"/>
			</g>
		</g>
		<g>
			<g>
				<path class="st0" d="M201.9,732.9c-0.2,0-0.3,0-0.5-0.1l-24.5-5.2c-1.4-0.3-2.2-1.6-1.9-3c0.3-1.3,1.6-2.2,3-1.9l24.5,5.2
					c1.4,0.3,2.2,1.6,1.9,3C204.1,732.1,203.1,732.9,201.9,732.9z"/>
			</g>
			<g>
				<path class="st0" d="M300.6,753.8c-0.2,0-0.3,0-0.5-0.1l-49.3-10.5c-1.4-0.3-2.2-1.6-1.9-3c0.3-1.3,1.6-2.2,3-1.9l49.3,10.5
					c1.4,0.3,2.2,1.6,1.9,3C302.8,753,301.7,753.8,300.6,753.8z"/>
			</g>
			<g>
				<path class="st0" d="M1427.8,385.6c-0.1,0-0.2,0-0.3,0c-1.4-0.2-2.4-1.4-2.2-2.8l5.8-51.7c0.2-1.4,1.4-2.4,2.8-2.2
					c1.4,0.2,2.4,1.4,2.2,2.8l-5.8,51.7C1430.1,384.7,1429,385.6,1427.8,385.6z"/>
			</g>
			<g>
				<path class="st0" d="M1439.4,282.3c-0.1,0-0.2,0-0.3,0c-1.4-0.2-2.4-1.4-2.2-2.8l2.8-24.8c0.2-1.4,1.4-2.4,2.8-2.2
					c1.4,0.2,2.4,1.4,2.2,2.8l-2.8,24.8C1441.8,281.3,1440.7,282.3,1439.4,282.3z"/>
			</g>
		</g>
	</g>
	<g id="boy">
		<g>
			<defs>
				<circle id="SVGID_1_" cx="1442.2" cy="231" r="153"/>
			</defs>
			<clipPath id="SVGID_2_">
				<use xlink:href="#SVGID_1_"  style="overflow:visible;"/>
			</clipPath>
			<circle class="st1" cx="1442.2" cy="231" r="153"/>
			<g class="st2">
				<path class="st3" d="M1394.9,216.9c-0.4-1.1-9.9-55.7-11-76.9c-1.1-21.2,34.1-24.3,34.1-24.3s28.8-15.5,49.7-7.6
					c20.8,8,35,21.4,44.5,38c9.5,16.7-8.3,68.7-8.3,68.7L1394.9,216.9z"/>
				<path class="st4" d="M1329.5,392.3c-0.1-0.9,2.4-22.4,2.5-23.2c4.8-45.2,60.6-58,116.2-58c65.4,0,109.7,12,116.8,59
					c0.2,1.4,4,22.9,3.8,24.4C1447.7,396,1329.5,392.3,1329.5,392.3z"/>
				<path class="st5" d="M1459.5,346.2c-6.5,9.6-11.2,10-18.3,0c-5.6-7.9-24.3-26-24.3-35.1l7.7-91c0-9.1,7.5-16.6,16.6-16.6h18.3
					c9.1,0,16.6,7.5,16.6,16.6l3.6,91C1479.6,320.2,1465.3,337.6,1459.5,346.2z"/>
				<path class="st6" d="M1459.5,203.4h-18.3c-9.1,0-16.6,7.5-16.6,16.6l-6.7,80.8c20.5,6.5,48.2-6.7,60.4-21.4l-2.3-59.4
					C1476.1,210.9,1468.6,203.4,1459.5,203.4z"/>
				<path class="st7" d="M1387.7,317.7l29.3,54.1c0,0,15.7-12.9,17.2-10.4c1.5,2.5-2.8,34.4-2.8,34.4s34.9,0.5,36.4-1
					c1.5-1.5-7.1-34.6-3.5-34.6c3.5,0,14.2,9.6,14.2,9.6l32.7-52.1l-7.2-1.7l-53.5,28.8l-57.3-28.2L1387.7,317.7z"/>
				<polygon class="st8" points="1421.2,342.6 1442.9,357.2 1436.2,395.9 1465.5,394.3 1458.1,359.1 1476.2,342.6 1467.7,334.6 
					1429.6,334.6 				"/>
				<path class="st4" d="M1418.5,291.2l-26.9,25.6c0,0,27.4,48.7,28.9,48.7c1.5,0,23.2-26.9,23.2-26.9l13.9-0.2l22,23.1l25.5-45.2
					l-26-27.6c0,0-22.2,43-26.3,44c-4,1-4.1,1.5-7.3-1C1442.2,329.1,1418.5,291.2,1418.5,291.2z"/>
				<ellipse class="st5" cx="1450.3" cy="204.4" rx="55.2" ry="75.2"/>
				<path class="st5" d="M1400.8,203.2c5.2,10.9,3.5,22.5-3.8,25.9c-7.2,3.4-17.3-2.6-22.5-13.4c-5.2-10.9-3.5-22.5,3.8-25.9
					C1385.6,186.3,1395.6,192.3,1400.8,203.2z"/>
				<path class="st5" d="M1497.4,203.2c-5.2,10.9-3.5,22.5,3.8,25.9c7.2,3.4,17.3-2.6,22.5-13.4c5.2-10.9,3.5-22.5-3.8-25.9
					C1512.6,186.3,1502.5,192.3,1497.4,203.2z"/>
				<path class="st4" d="M1474.8,235.2c0,0-11,17.8-24.5,17.8c-13.5,0-24.5-17.8-24.5-17.8H1474.8z"/>
				<path class="st3" d="M1418,153.2c22.7-15.9,33-13.3,50,12.9c17.1,26.2,37.5,26.6,37.5,26.6l2.7-27.1c0,0-25.4-49.2-59.5-42.7
					c-34.1,6.4-53.5,37.1-53.5,37.1s-1.7,57.5,3.1,59.5c4.8,2,5.3-18.6,8.7-22.7c3.4-4.2-3.4-23.9,1.1-33
					C1412.7,154.7,1418,153.2,1418,153.2z"/>
				<path class="st3" d="M1491.1,182.8c7.9,8.7,4.9,43.2,9.1,42.8c4.2-0.4,5.7-33,4.5-36.4C1503.6,185.8,1491.1,182.8,1491.1,182.8z
					"/>
			</g>
		</g>
		<g>
			<path class="st9" d="M1442.2,388c-86.6,0-157-70.4-157-157c0-86.6,70.4-157,157-157c86.6,0,157,70.4,157,157
				C1599.2,317.6,1528.8,388,1442.2,388z M1442.2,82c-82.2,0-149,66.8-149,149s66.8,149,149,149c82.2,0,149-66.8,149-149
				S1524.4,82,1442.2,82z"/>
		</g>
		<g>
			
				<ellipse transform="matrix(0.9732 -0.2298 0.2298 0.9732 -28.4064 311.3121)" class="st10" cx="1322.7" cy="277.6" rx="74.5" ry="74.5"/>
			<path class="st4" d="M1321,228.5c9.7-1.3,18,22.7,17.3,30.3c-0.7,7.7,18-1,27,5.7c9,6.7,6.3,41.3,0,43.7
				c-6.3,2.3-31.9,2.7-40.1-1.7c-8.2-4.3-13.8-3.5-13.8-3.5l-4.2-36.3c0,0,5.1-1.5,10.8-6.5C1323.7,255.2,1321,228.5,1321,228.5z
				 M1278,313.5c2.3,2,28.7,8.3,30-5c1.3-13.3-5.3-41.7-5.3-41.7s-18.3-0.9-24.7,2.3C1275.5,270.4,1275.7,311.5,1278,313.5z"/>
		</g>
	</g>
	<g id="yelow-gerl">
		<g>
			<defs>
				<circle id="SVGID_3_" cx="763.7" cy="1257.8" r="315.1"/>
			</defs>
			<clipPath id="SVGID_4_">
				<use xlink:href="#SVGID_3_"  style="overflow:visible;"/>
			</clipPath>
			<circle class="st11" cx="763.7" cy="1257.8" r="315.1"/>
			<g class="st12">
				<g>
					<path class="st13" d="M916.8,1232.4c0,0,9.9,9.2,22.2,3.3c12.3-5.9,57.4-37.8,56-45.6c-1.4-7.8-22.4-9.6-22.4-9.6
						S907.4,1232,916.8,1232.4z"/>
					<path class="st14" d="M928.7,1231.2c-8.5-1.4,19.4-23.5,28.5-32.6c9.1-9.1,15-13.4,15-13.4s15.5,1.9,15.5,4.9
						s-44.6,38.6-44.6,38.6S932.5,1231.8,928.7,1231.2z"/>
					<path class="st5" d="M874.1,1271c0,0,16.2-27.4,24-34.8c7.8-7.3,34-21.5,38-21.6c6.8-0.1-23.4,20.2-23.4,20.2
						s4.1,26.5,0.5,36.1c-3.7,9.6-42.1,22.4-42.1,22.4L874.1,1271z"/>
					<path class="st15" d="M843.9,1299.8c0,0,26.5-39.8,32.5-37c5.9,2.7,21.9,37,21.9,37s-46.6,48.5-46.6,39.3
						C851.7,1329.9,843.9,1299.8,843.9,1299.8z"/>
					<path class="st5" d="M770.6,1086.7c0,0-27.4,96.9-45.7,137.2c-18.3,40.2-27.4,115.2-23.8,246.9c3.7,131.7-21.9,128,16.5,144.5
						c38.4,16.5,175.6-11,193.9-53c18.3-42.1-12.2-213.3-57.6-276.2c-44.8-62-64.9-84.1-64.9-98.8c0-14.6,17.7-76.8,17.7-76.8
						L770.6,1086.7z"/>
					
						<linearGradient id="SVGID_5_" gradientUnits="userSpaceOnUse" x1="3093.9424" y1="1119.2247" x2="2554.8962" y2="1758.3998" gradientTransform="matrix(1 0 0 1 -2051.6167 0)">
						<stop  offset="0" style="stop-color:#FFC34E"/>
						<stop  offset="1" style="stop-color:#FB8627"/>
					</linearGradient>
					<path class="st16" d="M911.4,1562.2c18.3-42.1-12.2-213.3-57.6-276.2c-20.9-28.9-36.4-49.1-47-64c-21.7-13-45.7-25-68.7-32.1
						c-4.6,13-9.2,24.8-13.3,33.8c-18.3,40.2-27.4,115.2-23.8,246.9c3.7,131.7-21.9,128,16.5,144.5
						C756,1631.7,893.1,1604.3,911.4,1562.2z"/>
					
						<linearGradient id="SVGID_6_" gradientUnits="userSpaceOnUse" x1="2988.6626" y1="1030.4373" x2="2449.6157" y2="1669.613" gradientTransform="matrix(1 0 0 1 -2051.6167 0)">
						<stop  offset="0" style="stop-color:#FFC34E"/>
						<stop  offset="1" style="stop-color:#FB8627"/>
					</linearGradient>
					<path class="st17" d="M721.8,1172.7c0.5-7.5,98.2,31.1,98.8,38.4c0.6,7.3,6.4,34.6,14.5,49.3c8.1,14.7-136,96.8-130.7,56.8
						C709.6,1277.3,720.6,1192.8,721.8,1172.7z"/>
					<path class="st6" d="M789,1188.9c-0.1-0.6-0.1-1.1-0.1-1.6c0-14.6,17.7-76.8,17.7-76.8l-36-23.8c0,0-6.4,22.5-15,50.3
						C766.8,1170.4,777.2,1181.8,789,1188.9z"/>
					<path class="st5" d="M861.2,1134c-6.6,30.1-27.5,51.6-51.5,45.7c-17.6-4.3-44.8-29-36.1-65c7.2-30,31.6-50.2,55.8-44.9
						C853.6,1075.1,867.8,1103.9,861.2,1134z"/>
					<path class="st5" d="M902.8,1358.6c25-43.1,27.8-83.4,45.5-96c24.9-17.7,45.3-57.3,36.3-58.8c-9-1.6-45.5,31.9-45.5,31.9
						s9.5-13,7.2-14.1c-2.3-1.1-20.6,12.3-23.5,28c-2.9,15.8-38.2,88.2-67.8,111.4C825.4,1384.2,877.8,1401.7,902.8,1358.6z"/>
					
						<linearGradient id="SVGID_7_" gradientUnits="userSpaceOnUse" x1="3113.9099" y1="914.4062" x2="2743.5728" y2="1576.897" gradientTransform="matrix(1 0 0 1 -2051.6167 0)">
						<stop  offset="0" style="stop-color:#FFC34E"/>
						<stop  offset="1" style="stop-color:#FB8627"/>
					</linearGradient>
					<path class="st18" d="M741,1249.9c-44.3,11-24,144.6,13.3,223.9c37.3,79.3,107.4,10.8,133.6-8.6c10-7.4,16.5-14.8,20.8-21.3
						c-8.4-47.3-22.8-98-40.7-133.7C826.3,1359.2,806.5,1233.6,741,1249.9z"/>
					
						<linearGradient id="SVGID_8_" gradientUnits="userSpaceOnUse" x1="3081.9617" y1="1071.8015" x2="2506.6355" y2="1753.9956" gradientTransform="matrix(1 0 0 1 -2051.6167 0)">
						<stop  offset="0" style="stop-color:#FFC34E"/>
						<stop  offset="1" style="stop-color:#FB8627"/>
					</linearGradient>
					<path class="st19" d="M754.3,1240.3c-55.6,5.6-25.2,144.5,15.5,200.6c40.7,56.1,98.6,1.8,116.9-30.5
						c18.3-32.3,55.3-87.3,55.3-123c0-6.7-13.7-8.1-30.2-6.9c-15.5,1.1-85.5,97.5-85.5,97.5S802.9,1235.4,754.3,1240.3z"/>
				</g>
				<path class="st20" d="M839,1040.5c58.1,4,50.7,94,50.7,94s-47.9,1.4-62.2-2.8c-14.3-4.1-28.8-15.3-28.8-15.3s-8.8,34.1-32.8,36
					c-24,1.9-24,1.9-24,1.9s-15.8-64.7-3.3-93.9C764.5,999.9,816.4,1030.2,839,1040.5z"/>
				<path class="st5" d="M775.6,1127.6c3.4,8.8,11.6,13.9,18.2,11.4c6.6-2.6,9.2-11.8,5.7-20.7c-3.4-8.8-11.6-13.9-18.2-11.4
					C774.8,1109.6,772.2,1118.8,775.6,1127.6z"/>
				<path class="st20" d="M747,1117.3c0-1.9-2.6-2.4-3.3-0.7c-5.2,12.2-16.2,33.5-29.9,35c-19.3,2.1-157.3,13.4-111.4,119.8
					c29,67.3,50,94.1,21.5,119c-26.2,22.9-60.9,1.3-69.5-4.4c-1.1-0.7-2.5-0.1-2.7,1.2c-2.4,14.8-10.5,85.8,58.3,84.8
					c76.8-1.1,113.4-70.5,82.2-134.2c-31.3-63.7,30.7-80,33.2-115.7c2.4-34.5,0.6-51.9,0.1-55.7c-0.1-0.5,0.1-1,0.5-1.4l20.6-21.1
					c0.3-0.3,0.5-0.8,0.5-1.2V1117.3z"/>
				<g>
					<path class="st20" d="M595,1397.7c-15.6,0-40.2-6.4-41.3-6.7c-1.2-0.3-2-1.5-1.8-2.8c0.2-1.2,1.4-2.1,2.6-2
						c0.3,0,33.4,2.9,46.3-7.3c16.3-12.9,7.2-33.9-7.9-68.7c-6.4-14.7-13.6-31.4-20.2-50.6c-12.6-36.5,0.9-61.6,14.5-76.3
						c28.4-30.7,83.9-43.9,131.8-31.4c1.3,0.3,2.1,1.7,1.7,3c-0.3,1.3-1.7,2.1-3,1.7c-1.1-0.3-2.2-0.6-3.4-0.8
						c-60.9,1-100.3,15.2-116.9,42c-14.5,23.5-11.5,57,8.9,99.6c19.9,41.5,25.3,70.7,15.9,86.8c-4.7,8-13,12.6-24.1,13.3
						C597.2,1397.6,596.1,1397.7,595,1397.7z M577.1,1391c7.4,1.2,15.1,2.1,20.7,1.7c9.6-0.6,16.4-4.3,20.2-10.9
						c5.9-10,7.8-32.5-16.1-82.3c-21.2-44.1-24.1-79.2-8.6-104.2c15-24.3,47-38.7,95.2-43c-38-1.8-76.1,11-97.8,34.4
						c-18.1,19.6-22.8,44.3-13.4,71.4c6.6,19.1,13.8,35.7,20.1,50.3c15.5,35.7,25.7,59.3,6.4,74.4
						C597.3,1387.9,586.8,1390.1,577.1,1391z"/>
				</g>
			</g>
		</g>
		<g>
			<path class="st9" d="M763.7,1576.8c-85.2,0-165.4-33.2-225.6-93.5c-60.3-60.3-93.5-140.4-93.5-225.6s33.2-165.4,93.5-225.6
				c60.3-60.3,140.4-93.5,225.6-93.5s165.4,33.2,225.6,93.5c60.3,60.3,93.5,140.4,93.5,225.6s-33.2,165.4-93.5,225.6
				C929,1543.7,848.9,1576.8,763.7,1576.8z M763.7,946.7c-171.5,0-311.1,139.6-311.1,311.1s139.6,311.1,311.1,311.1
				s311.1-139.6,311.1-311.1S935.2,946.7,763.7,946.7z"/>
		</g>
		<g>
			
				<ellipse transform="matrix(0.3844 -0.9232 0.9232 0.3844 -366.7118 1583.7791)" class="st21" cx="1004.2" cy="1066.9" rx="74.5" ry="74.5"/>
			<path class="st4" d="M1003.5,1040.7c0,0-26-23-44.5-0.9c-25.3,30.3,44.5,68.8,44.5,68.8s71-39.7,46.2-70.4
				C1030.9,1015,1003.5,1040.7,1003.5,1040.7z"/>
		</g>
		<g>
			<path class="st21" d="M974,862.2c0,24.5-19.9,44.4-44.4,44.4s-44.4-19.9-44.4-44.4c0-24.5,19.9-44.4,44.4-44.4
				S974,837.7,974,862.2z"/>
			<path class="st4" d="M929.2,846.6c0,0-15.5-13.7-26.5-0.5c-15.1,18,26.5,41,26.5,41s42.3-23.7,27.5-41.9
				C945.5,831.4,929.2,846.6,929.2,846.6z"/>
		</g>
		<g>
			
				<ellipse transform="matrix(0.2887 -0.9574 0.9574 0.2887 -517.0501 1987.0813)" class="st10" cx="1078.8" cy="1341.5" rx="74.5" ry="74.5"/>
			<path class="st4" d="M1077.1,1292.4c9.7-1.3,18,22.7,17.3,30.3c-0.7,7.7,18-1,27,5.7s6.3,41.3,0,43.7c-6.3,2.3-31.9,2.7-40.1-1.7
				c-8.2-4.3-13.8-3.5-13.8-3.5l-4.2-36.3c0,0,5.1-1.5,10.8-6.5C1079.8,1319.1,1077.1,1292.4,1077.1,1292.4z M1034.1,1377.4
				c2.3,2,28.7,8.3,30-5c1.3-13.3-5.3-41.7-5.3-41.7s-18.3-0.9-24.7,2.3C1031.7,1334.3,1031.8,1375.4,1034.1,1377.4z"/>
		</g>
	</g>
	<g id="gerl">
		<g>
			<defs>
				<circle id="SVGID_9_" cx="157" cy="720.8" r="153"/>
			</defs>
			<clipPath id="SVGID_10_">
				<use xlink:href="#SVGID_9_"  style="overflow:visible;"/>
			</clipPath>
			<circle class="st22" cx="157" cy="720.8" r="153"/>
			<g class="st23">
				<path class="st10" d="M35.9,863.1c18.5-39.8,49.8-52.6,101.3-52.6c61.2,0,101.8,37.8,110.8,70.1
					C138.3,882.2,35.9,863.1,35.9,863.1z"/>
				<path class="st24" d="M115.8,616.9c-25.9,7.3-24.8,21.8-33.4,35.4c-8.6,13.5-27.4,22.5-29.7,31.6c-2.3,9,5.8,27.8-3.8,38.3
					c-9.5,10.5-12.8,15.8-9,26.3c3.8,10.5,12,27,12.8,29.3c0.8,2.3,11.3,18,24,20.3c12.8,2.3,36.8,6,48.8,11.3
					c12,5.3,50.7-6.7,72.1-6c21.5,0.8,36.1-15.1,34.6-25.6c-1.5-10.5,15.8-31.6,15.8-49.6c0-19.4-22.5-33.8-28.5-46.6
					c-6-12.8,0.8-35.3-21.8-48.7c-14.2-8.4-24-7.7-35.3-11.4C151.1,617.7,132.3,612.3,115.8,616.9z"/>
				<path class="st5" d="M147.3,842.3c-5.9,8.7-10.2,9-16.5,0c-5.1-7.2-15-23.5-15-31.7v-82.5c0-8.3,6.8-15,15-15h16.5
					c8.3,0,15,6.8,15,15v82.5C162.3,818.9,152.6,834.6,147.3,842.3z"/>
				<path class="st6" d="M147.3,713.1h-16.5c-8.3,0-15,6.8-15,15v73.6c18.6,5.9,35.5-5.8,46.6-19.1v-54.5
					C162.3,719.9,155.6,713.1,147.3,713.1z"/>
				<ellipse class="st5" cx="139.1" cy="714" rx="50" ry="68.1"/>
				<path class="st24" d="M162.3,659.8c-31.6,53.3-78.1,48.1-78.1,48.1s1.1-70.6,38.1-74.4c37-3.8,58.8,11.1,66.3,35.6
					c7.5,24.5,0,40.7,0,40.7s-12-9.4-18-24.4C164.6,670.3,162.3,659.8,162.3,659.8z"/>
				<path class="st5" d="M94.2,712.9c4.7,9.8,3.1,20.3-3.4,23.5c-6.6,3.1-15.7-2.3-20.3-12.2c-4.7-9.8-3.1-20.3,3.4-23.5
					C80.4,697.6,89.5,703.1,94.2,712.9z"/>
				<path class="st5" d="M181.6,712.9c-4.7,9.8-3.1,20.3,3.4,23.5c6.6,3.1,15.7-2.3,20.3-12.2c4.7-9.8,3.1-20.3-3.4-23.5
					C195.4,697.6,186.3,703.1,181.6,712.9z"/>
				<path class="st4" d="M157.8,750.9c0,0-8.4,10.9-18.8,10.9c-10.4,0-18.8-10.9-18.8-10.9H157.8z"/>
			</g>
		</g>
		<g>
			<path class="st9" d="M157,877.8c-86.6,0-157-70.4-157-157s70.4-157,157-157s157,70.4,157,157S243.6,877.8,157,877.8z M157,571.8
				c-82.2,0-149,66.8-149,149s66.8,149,149,149s149-66.8,149-149S239.2,571.8,157,571.8z"/>
		</g>
		<g>
			
				<ellipse transform="matrix(0.7071 -0.7071 0.7071 0.7071 -376.3204 379.9234)" class="st25" cx="270.4" cy="644.2" rx="74.5" ry="74.5"/>
			<path class="st4" d="M234.9,683.7c-11-65.9,39.4-67.5,39.4-67.5v-19.5l40,40l-38.5,38.5v-22.3c0,0-19.3,0.8-26.7,11.4
				C241.8,674.8,234.9,683.7,234.9,683.7z"/>
		</g>
	</g>
	<g id="couple">
		<g>
			<defs>
				<circle id="SVGID_11_" cx="774.3" cy="384" r="380"/>
			</defs>
			<clipPath id="SVGID_12_">
				<use xlink:href="#SVGID_11_"  style="overflow:visible;"/>
			</clipPath>
			<circle class="st26" cx="774.3" cy="384" r="380"/>
			<g class="st27">
				<path class="st8" d="M598.7,324.1c50.3,36.3,158.3,52.1,192.7,54c34.4,1.9-19.1,96.8-19.1,96.8s-92.6,11.2-136.3,0
					C592.2,463.7,598.7,324.1,598.7,324.1z"/>
				<path class="st28" d="M512.5,1265.5c0.6,24.8,14.8,39.6,37.9,56.8c24.2,18,25.4,20-8.1,24.4c-33.5,4.4-42.8-10.8-65.2-17.3
					c-22.3-6.5-8.1-22.3-9.3-37.2c-1.2-14.9-3.4-39.1-3.4-39.1L512.5,1265.5z"/>
				<path class="st28" d="M707.9,1253.1c0,0,14.9,17.2,34.8,34.4c19.9,17.1,70.1,23,45.9,29.4c-24.2,6.4-51.3,2.9-76.2,6.5
					c-24.9,3.6-46.6,0.1-48.5-6.5c-1.9-6.6,0-53.8,0-53.8L707.9,1253.1z"/>
				<path class="st29" d="M776.5,167c31.2-29.6,88.4,8.1,93.8,33.2c13.9,64.5,20,131.2,3.1,157.4c-16.9,26.2-156.1,33.6-165.6,33.4
					c-12.7-0.3-20.2-43.5,4.8-71.8c24.9-28.3,36-79.3,40.6-105.5C758.7,182.2,771.5,171.7,776.5,167z"/>
				<g>
					<path class="st29" d="M887.2,341.6c-0.1,0-0.1,0-0.2,0c-0.8-0.1-1.4-0.9-1.3-1.7c7.3-52.7-2.5-113-24.3-150
						c-0.4-0.7-0.2-1.6,0.5-2.1c0.7-0.4,1.6-0.2,2.1,0.5c22.2,37.6,32.1,98.6,24.7,152C888.5,341.1,887.9,341.6,887.2,341.6z"/>
				</g>
				<g>
					<path class="st29" d="M896.2,307.1C896.1,307.1,896.1,307.1,896.2,307.1c-0.9-0.1-1.5-0.8-1.5-1.6
						c3-47.7-20.8-107.5-42.5-125.2c-0.6-0.5-0.7-1.5-0.2-2.1c0.5-0.6,1.5-0.7,2.1-0.2c22.2,18.1,46.6,79.2,43.5,127.7
						C897.6,306.5,896.9,307.1,896.2,307.1z"/>
				</g>
				<path class="st30" d="M712.2,355.5c-10.6,75.1-20.8,216.6-51.6,251.1c-30.7,34.4-47.8,116.6-47.8,116.6s99.3-54.2,139.9-187.5
					c12.7-41.8-18.4-139.5-25.9-148.8C719.3,377.6,712.2,355.5,712.2,355.5z"/>
				<g>
					<path class="st5" d="M927.3,561.9c-6.1,7.5-22.6,43.5-30.9,43.5c-28.4,0-30.5,11.1-45.9,19.3c-19.8,10.5-15.6,26.5-14.2,27.5
						c1.4,0.9,43.5-6.4,57.6-15.6c11.7-7.6,20.1-11.8,25.8-20.2c5.7-8.4,38.1-32.6,38.1-32.6L927.3,561.9z"/>
					<path class="st31" d="M898.6,339c28.7,17.4,34,33.5,62.2,82.5c28.2,49,33.2,66.7,44.4,84.4c11.2,17.7,14.9,38.2-8.7,60.5
						c-22.5,21.3-33,30.1-45.4,26.7c-8.3-2.2-14.9-26.5-26.5-22.1c-11.6,4.4,8.9-29.7,19.5-39.4c5.7-5.2,8.1-4.8,6.2-7.2
						c-1.9-2.4-37.2-28.8-66.7-66.9C854.1,419.3,898.6,339,898.6,339z"/>
					<g>
						<path class="st30" d="M988.8,522.3c-14-6.3-31.4-5.4-44.3-2.9c3.3,2.8,5.4,4.5,5.8,5c1.9,2.4-0.5,2-6.2,7.2
							c-2,1.9-4.4,4.6-6.9,7.9c9.8-5.2,20.5-9.8,29.3-11.1c22.3-3.3,23.7,2.8,35.4,10.2C1013.4,546.1,1011.6,532.6,988.8,522.3z"/>
						<path class="st30" d="M927.5,364.9c-7.7-10.5-15.9-18.1-28.9-26c0,0-44.5,80.3-15,118.5c9.4,12.1,19.3,23,28.6,32.4
							C912.8,464.1,915.5,406.7,927.5,364.9z"/>
					</g>
					<path class="st31" d="M789.3,312.4c-38.5,8.7-69.5,20-77.5,42.4c-3.9,10.8,18.5,189.6,40.8,209.4
						c43.1,38.3,114.2,2.5,114.2,2.5s32.3-80.4,45.1-215.3c3.3-12.2-73.6-36.1-86-38.5C813.4,310.4,789.3,312.4,789.3,312.4z"/>
					<path class="st5" d="M802.2,1260.7c0,0-52.7,73-21.1,70.4c31.7-2.6,52.3-35.2,52.3-35.2s11,36.9,42.6,35.2
						c31.6-1.7,13.8-21.1,0-43.7c-13-21.3-13.7-43.7-13.7-43.7L802.2,1260.7z"/>
					<path class="st5" d="M806.8,347.3c-13.1,0-23.7-10.7-23.7-23.7v-88.4c0-13.1,10.7-23.7,23.7-23.7c13.1,0,23.7,10.7,23.7,23.7
						v88.4C830.5,336.6,819.8,347.3,806.8,347.3z"/>
					<path class="st6" d="M806.8,211.4c-13.1,0-23.7,10.7-23.7,23.7v40c15.4,22.1,33.4,35.7,47.5,43.8v-83.8
						C830.5,222.1,819.8,211.4,806.8,211.4z"/>
					
						<ellipse transform="matrix(0.9736 -0.2284 0.2284 0.9736 -31.4101 194.7037)" class="st5" cx="825.6" cy="233.1" rx="42.8" ry="58.8"/>
					<path class="st5" d="M758,553.6c0,0-74,55.9-50.3,238.8c23.7,182.9,48.9,177.3,50.3,265.3c1.4,88,39.1,209.4,61.4,233.2
						c22.3,23.7,77.2-103.5,77.2-216.5c0-66,0-97.7,15.4-201c15.4-103.3,12.1-254.1-49.3-319.7S758,553.6,758,553.6z"/>
					<path class="st6" d="M817.9,962.6c-0.1-43.3-14.4-135.3-11.1-262.5L712.4,826c22.2,148.9,44.3,149.5,45.6,231.6
						c1.1,66.7,23,152.5,43.2,200.6c13.2,4.7,22,10.3,24.4,17.2c3.1,9.3,5.2,14.5,6.5,16c0.4-0.3,0.9-0.6,1.3-0.9
						c1.1-7.8-4.6-47.5-10.8-105.4C812.1,1087.3,818,1005.9,817.9,962.6z"/>
					<path class="st31" d="M724.7,488.2c12.3,72.3,4.9,82.1-12.3,142.1c-17.3,60-17.5,219.2-17.5,219.2s46.8,19.5,137.3,11.2
						c90.5-8.4,103.1-18.2,103.1-18.2S925,687.6,912,641.5c-13-46.1-33.3-77.6-34.3-107.2C876.6,504.7,724.7,488.2,724.7,488.2z"/>
					<path class="st10" d="M781.2,1331.1c31.7-2.6,52.3-35.2,52.3-35.2s11,36.9,42.6,35.2c27.2-1.5,17.9-16,5.9-34.3
						c-1.1,4.1-4.5,8-13.4,7.6c-18.7-0.7-36.3-23.4-36.3-23.4s-32.6,25.1-44.7,23.3c-12.1-1.8,5.9-30.9,5.9-30.9
						C780.1,1294.2,758,1333,781.2,1331.1z"/>
				</g>
				<path class="st29" d="M561.1,264.5c-14.7-20.7-29.5-76.9-16.3-82.6c13.1-5.7,9.8-14.8,23-31.6c13.1-16.8,66-23.4,81.6,4.9
					c15.6,28.3,22.3,31.2,22.8,46.4c0.6,15.2-36.8,52.9-36.8,52.9L561.1,264.5z"/>
				<path class="st5" d="M907.8,594.2c-4.3,6.4-8.4,11.2-11.4,11.2c-28.4,0-30.5,11.1-45.9,19.3c-19.8,10.5-15.6,26.5-14.2,27.5
					c1.4,0.9,43.5-6.4,57.6-15.6c11.7-7.6,20.1-11.8,25.8-20.2c1.1-1.6,3.2-3.8,5.8-6.3C919.2,605.4,913.2,600.1,907.8,594.2z"/>
				<path class="st5" d="M570.8,191.9c0,0-9.3,114.6-29.8,127.1c-20.5,12.5-59.6,59.1-54,159.6c5.6,100.5,13,143.9,20.5,182.7
					c7.4,38.8,147.1,15.2,162,0c14.9-15.2,31.6-153.9,0-224.1c-31.7-70.3-67-110-70.7-127.4c-3.7-17.4,20.5-87.2,20.5-87.2
					L570.8,191.9z"/>
				<path class="st6" d="M598.3,306c-0.5-21.9,20.9-83.4,20.9-83.4l-48.4-30.7c0,0-2,25-6.3,52.9C570.8,283.6,583.4,298.5,598.3,306
					z"/>
				<path class="st5" d="M659.2,224.1c4.7,33.7-6.9,60-31.2,63.4c-24.2,3.4-51.9-17.6-56.6-51.2c-4.7-33.7,11.2-63.7,35.4-67
					C631.1,165.8,654.5,190.4,659.2,224.1z"/>
				<path class="st5" d="M924.9,352.9c14.3,8.9,25.1,31,18.9,49c-6.2,18-14.9-5.1-24.4-18.3C909.9,370.4,914.3,346.3,924.9,352.9z"
					/>
				<path class="st10" d="M671.4,593.8c-9.8,117.6,23.3,382.8,23.5,442.9c0.2,60,24.2,224.2,24.2,224.2s-39.1,11.2-54.5,12.5
					c-15.4,1.3-59.7-148.8-66.3-228.4c-6.6-79.6-48.1-220.8-48.1-220.8l14.2-242.3L671.4,593.8z"/>
				<path class="st32" d="M671.4,593.8l-106.9-11.9l-14.2,242.3c0,0,41.5,141.2,48.1,220.8c0.1,1,0.2,2.1,0.3,3.2
					c0.8-122.7,36.5-175.9,74.1-305.8C669.6,685.4,668.2,631.9,671.4,593.8z"/>
				<path class="st10" d="M667.2,633.2c-50.3,170.3-96.3,330.9-127.1,437c-30.7,106.1-21.5,215.2-21.5,215.2l-51.7,4.1
					c0,0-58.1-174.9-19-269.6s20.5-151.7,27.9-240.2c8.4-99.8,22.5-172.7,22.5-172.7L667.2,633.2z"/>
				<path class="st21" d="M669.5,437.2c-17-37.7-35.1-66.7-48.7-88.1c-6-0.8-13.7-1.6-22.3-1.8c-14.4-0.3-39.5-18.8-54.4-30.9
					c-1,1.1-1.9,2-2.9,2.6c-20.5,12.5-59.6,59.1-54,159.6c5.6,100.5-15.5,134.9-8.1,173.7c7.4,38.8,175.6,24.2,190.5,9
					C684.4,646.1,701.1,507.4,669.5,437.2z"/>
				<path class="st21" d="M538.5,294.9l-15.1,39.9l95.8,38.9l11.1-9.5c0,0-14.8-21.5-11.1-34.6c3.7-13,8.1-16.8,0-19.9
					c-8.1-3.1-36.8-8.1-54.7-14.9C546.6,288.1,541.6,286.7,538.5,294.9z"/>
				<path class="st8" d="M687.5,556.1c-1.9-29.9-8-96.7-18-119c-3.7-8.2-7.4-16-11.2-23.4l-12.1-5.2c0,0-67-53.5-110.8-43.5
					c-43.8,10-45.6,173-20.5,190.8c25.1,17.9,35.4-29.9,128.3-15.1C658.4,543.2,675.1,557.3,687.5,556.1z"/>
				<path class="st10" d="M844.1,604.2c2,1.5,5,1.1,6.5-1L1048.1,335c1.5-2,1.1-5-1-6.5c-2-1.5-5-1.1-6.5,1L843.1,597.7
					C841.6,599.8,842.1,602.7,844.1,604.2z"/>
				<path class="st32" d="M1059.4,339h-32.9c-5.5,0-10-4.5-10-10c0-5.5,4.5-10,10-10h32.9c5.5,0,10,4.5,10,10
					C1069.4,334.5,1064.9,339,1059.4,339z"/>
				<path class="st29" d="M1049.7,240.6l31.7,5.3c6,1,9.4,7.4,6.9,13l-30.7,68.2c-2,4.4-7,6.5-11.5,4.9l-27.9-9.8
					c-5.1-1.8-7.6-7.4-5.5-12.4l26.9-63.8C1041.3,242.1,1045.4,239.8,1049.7,240.6z"/>
				<path class="st10" d="M1047.8,246l26.2,4.7c5,0.9,7.8,6.5,5.7,11.4l-25.4,60.1c-1.6,3.9-5.8,5.8-9.5,4.4l-23.1-8.6
					c-4.2-1.6-6.3-6.5-4.5-10.9l22.3-56.2C1040.8,247.4,1044.2,245.4,1047.8,246z"/>
				<g>
					<g>
						<path class="st33" d="M1027.6,239.9c-0.2,0-0.5-0.1-0.7-0.2l-35.1-18.3c-0.7-0.4-1-1.3-0.6-2c0.4-0.7,1.3-1,2-0.6l35.1,18.3
							c0.7,0.4,1,1.3,0.6,2C1028.6,239.6,1028.1,239.9,1027.6,239.9z"/>
					</g>
					<g>
						<path class="st33" d="M1034.1,232.5c-0.5,0-0.9-0.2-1.2-0.6l-24.8-33.7c-0.5-0.7-0.3-1.6,0.3-2.1c0.7-0.5,1.6-0.3,2.1,0.3
							l24.8,33.7c0.5,0.7,0.3,1.6-0.3,2.1C1034.7,232.4,1034.4,232.5,1034.1,232.5z"/>
					</g>
					<g>
						<path class="st33" d="M982.1,277.1c-0.6,0-1.2-0.4-1.4-1c-0.3-0.8,0.2-1.6,1-1.9l42.9-13.7c0.8-0.3,1.6,0.2,1.9,1
							c0.3,0.8-0.2,1.6-1,1.9L982.6,277C982.4,277.1,982.3,277.1,982.1,277.1z"/>
					</g>
					<g>
						<path class="st33" d="M1027.3,252.7c-0.1,0-0.1,0-0.2,0c-32.7-4.7-50.6-7.5-53.2-8.4c-0.8-0.3-1.2-1.1-0.9-1.9
							c0.3-0.8,1.1-1.2,1.9-0.9c1.4,0.5,10,2.2,52.6,8.3c0.8,0.1,1.4,0.9,1.3,1.7C1028.6,252.1,1028,252.7,1027.3,252.7z"/>
					</g>
				</g>
				<g>
					<path class="st34" d="M1017.1,307.1c-1.7,4.3,0.4,9.3,4.5,10.9l2.8,1l39.7-20.2l15.5-36.7c0.7-1.7,0.8-3.5,0.5-5.1l-60.9,44.5
						L1017.1,307.1z"/>
					<path class="st34" d="M1025.5,319.4l19.2,7.2c3.8,1.4,7.9-0.5,9.5-4.4l6.7-15.7C1049.5,310.4,1034.4,316.1,1025.5,319.4z"/>
				</g>
				<path class="st5" d="M854.4,479.8l53.1-2.4c0,0,27.1-33.7,38.1-26.9c11,6.9,30-5.4,29.8,6.9c-0.1,12.2-15.5,44.1-33.9,47.3
					c-18.4,3.3-60.5,0-60.5,0L854.4,479.8z"/>
				<path class="st21" d="M550.8,355.5c31.1,2.2,136.8,95.1,184.9,129.8c66.1-10.8,145.2-9.9,145.2-9.9s16.4,31,15.4,33.5
					c-1,2.4-107.2,39.3-169.9,36.7c-62.7-2.6-91.6-22.3-139.5-28c-31.2-3.7-46.3,9.2-63.6-8.7c-17.2-18-23.3-110.1-13.9-128.7
					C518.9,361.6,537.5,354.6,550.8,355.5z"/>
				<path class="st29" d="M561.1,264.5c16.4-8.1,8.3-23.9,9.7-34.4c1.4-10.5-3.1-18.9,0.8-18.2c3.9,0.7,3,40.2,8,39.9
					c5-0.3,3.1-29.8,8.3-30.6c5.2-0.8,7.3-8.2,3.2-21.1c-4.1-12.9-0.8-24.4,10.3-14.2c11.1,10.3,35.7,34.1,50,30.8
					c14.4-3.3,13.5-18.1,12.3-19.7c-1.2-1.6-38.2-43.1-38.2-43.1l-73,41.8l-2.1,38.2L561.1,264.5z"/>
				<path class="st5" d="M574.2,219.7c1,9.9,1.3,25,2.2,27.1c-6.5,2.7-14.8-2.7-18.6-11.9c-3.8-9.2-3.4-21.3,3.2-23.8
					C565,209.6,573,208.2,574.2,219.7z"/>
				<path class="st29" d="M863.2,197.4c-10.4,33.5-68.1,34-70.9,43.3c-2.8,9.3-3.5,45.5-11.9,68.5c-13.5,36.8-19.6,48.9-38.3,54.5
					c-18.8,5.6-26.7-25.5-26.7-25.5s33.7-44.4,35.5-45.4c1.9-0.9,19.6-114.5,19.6-114.5s45.1-8.3,47.4-9.5
					c2.3-1.2,34.9,13.2,34.9,13.2L863.2,197.4z"/>
			</g>
		</g>
		<g>
			<path class="st9" d="M774.3,768c-51.8,0-102.1-10.2-149.5-30.2c-45.7-19.3-86.8-47-122.1-82.3c-35.3-35.3-63-76.3-82.3-122.1
				c-20-47.3-30.2-97.6-30.2-149.5s10.2-102.1,30.2-149.5c19.3-45.7,47-86.8,82.3-122.1c35.3-35.3,76.3-63,122.1-82.3
				C672.2,10.2,722.5,0,774.3,0c51.8,0,102.1,10.2,149.5,30.2c45.7,19.3,86.8,47,122.1,82.3c35.3,35.3,63,76.3,82.3,122.1
				c20,47.3,30.2,97.6,30.2,149.5s-10.2,102.1-30.2,149.5c-19.3,45.7-47,86.8-82.3,122.1c-35.3,35.3-76.3,63-122.1,82.3
				C876.5,757.8,826.2,768,774.3,768z M774.3,8c-207.3,0-376,168.7-376,376s168.7,376,376,376s376-168.7,376-376S981.7,8,774.3,8z"
				/>
		</g>
		<g>
			
				<ellipse transform="matrix(0.7071 -0.7071 0.7071 0.7071 -90.4619 954.2554)" class="st10" cx="1106.7" cy="586.3" rx="57.9" ry="57.9"/>
			<path class="st4" d="M1105.4,548.2c7.5-1,14,17.6,13.5,23.5c-0.5,6,14-0.8,21,4.4c7,5.2,4.9,32.1,0,33.9
				c-4.9,1.8-24.7,2.1-31.1-1.3c-6.4-3.4-10.7-2.7-10.7-2.7l-3.3-28.2c0,0,4-1.2,8.4-5.1C1107.4,568.9,1105.4,548.2,1105.4,548.2z
				 M1072,614.2c1.8,1.6,22.3,6.5,23.3-3.9c1-10.4-4.1-32.3-4.1-32.3s-14.2-0.7-19.1,1.8C1070.1,580.7,1070.2,612.6,1072,614.2z"/>
		</g>
		<g>
			<circle class="st9" cx="1181.8" cy="60.8" r="20"/>
			<circle class="st9" cx="1181.8" cy="150.8" r="20"/>
			
				<ellipse transform="matrix(0.3827 -0.9239 0.9239 0.3827 584.048 1088.7961)" class="st9" cx="1106.8" cy="107.4" rx="20" ry="20"/>
			<g>
				<path class="st9" d="M1181.8,154.8c-0.7,0-1.4-0.2-2-0.5l-75-43.5c-1.2-0.7-2-2-2-3.4c0-1.4,0.7-2.7,1.9-3.5l75-46.5
					c1.9-1.2,4.3-0.6,5.5,1.3c1.2,1.9,0.6,4.3-1.3,5.5l-69.3,43l69.2,40.1c1.9,1.1,2.6,3.6,1.5,5.5
					C1184.5,154.1,1183.1,154.8,1181.8,154.8z"/>
			</g>
		</g>
	</g>
</g>
<g>
</g>
<g>
</g>
<g>
</g>
<g>
</g>
<g>
</g>
<g>
</g>
<g>
</g>
<g>
</g>
<g>
</g>
<g>
</g>
<g>
</g>
<g>
</g>
<g>
</g>
<g>
</g>
<g>
</g>
</svg>
