<svg width="11" height="7" viewBox="0 0 11 7" fill="none" xmlns="http://www.w3.org/2000/svg">
<path d="M0.109911 0.953795L0.660975 0.40277C0.734403 0.329187 0.818989 0.292511 0.914617 0.292511C1.01001 0.292511 1.09456 0.329187 1.16799 0.40277L5.49994 4.73449L9.8317 0.402886C9.90517 0.329303 9.98972 0.292627 10.0852 0.292627C10.1808 0.292627 10.2653 0.329303 10.3388 0.402886L10.8897 0.953949C10.9633 1.02738 11 1.11193 11 1.20748C11 1.30295 10.9632 1.3875 10.8897 1.46093L5.75347 6.59731C5.68004 6.67078 5.59545 6.7075 5.49994 6.7075C5.40443 6.7075 5.32 6.67078 5.24661 6.59731L0.109911 1.46093C0.0364819 1.38746 0 1.30291 0 1.20748C0 1.11193 0.0364819 1.02738 0.109911 0.953795Z" fill="#7A9DC0"/>
</svg>
