<svg width="1440" height="959" viewBox="0 0 1440 959" fill="none" xmlns="http://www.w3.org/2000/svg">
<path d="M0.000137329 0H1440V797C1440 797 545 713.5 226 797C-92.9995 880.5 0.000160217 917 -93.5001 957.5C-187 998 0.000137329 0 0.000137329 0Z" fill="#3895F5"/>
<path d="M488.065 172.816C387.745 70.0382 404.866 -88.9443 432.723 -132.256L1497.94 -62.2614L1467.45 773.353C1452.01 801.085 1268.91 578.81 1077.42 619.413C838.058 670.168 690.408 511.495 665.42 393.122C639.581 270.716 613.264 301.081 488.065 172.816Z" fill="#64B1FF"/>
<path d="M46.1275 668.762C63.1385 789.112 -28.1241 889.029 -68.8133 904.641L-760.668 323.675L-321.585 -231.271C-297.172 -242.469 -283.486 0.861443 -132.492 69.0053C56.2501 154.185 77.5803 336.368 35.3789 429.652C-8.2601 526.114 24.8977 518.567 46.1275 668.762Z" fill="#64B1FF"/>
<path d="M639.43 182.007C547.027 97.1688 569.554 -13.1975 592.367 -57.7759L1489.52 -13.387L1455.93 841.124C1443.25 869.641 1330.59 793.738 1176.58 837.335C984.062 891.832 813.667 584.792 816.884 461.207C820.101 337.623 754.933 288.054 639.43 182.007Z" fill="#2A66C5"/>
</svg>
