<?xml version="1.0" encoding="utf-8"?>
<!-- Generator: Adobe Illustrator 23.0.3, SVG Export Plug-In . SVG Version: 6.00 Build 0)  -->
<svg version="1.1" id="Слой_1" xmlns="http://www.w3.org/2000/svg" xmlns:xlink="http://www.w3.org/1999/xlink" x="0px" y="0px"
	 viewBox="0 0 2084.1 1750.5" style="enable-background:new 0 0 2084.1 1750.5;" xml:space="preserve">
<style type="text/css">
	.st0{opacity:0.6;fill:#DDEFFE;enable-background:new    ;}
	.st1{fill:#63ACC2;}
	.st2{clip-path:url(#SVGID_2_);fill:#63ACC2;}
	.st3{display:none;}
	.st4{display:inline;fill:#63ACC2;}
	.st5{clip-path:url(#SVGID_4_);fill:#D5EBFE;}
	.st6{clip-path:url(#SVGID_6_);}
	.st7{fill:#303C60;}
	.st8{fill:#F09959;}
	.st9{fill:#6791C9;}
	.st10{fill:#75A1DE;}
	.st11{opacity:0.5;fill:#6791C9;enable-background:new    ;}
	.st12{fill:#E38540;}
	.st13{fill:#F5CE5C;}
	.st14{fill:#4381DB;}
	.st15{fill:#2E5B9A;}
	.st16{fill:#9CBEED;}
	.st17{fill:#FFFFFF;}
	.st18{fill:#232E4F;}
	.st19{fill:#1B243D;}
	.st20{fill:#FFD24F;}
	.st21{fill:#EDC055;}
	.st22{fill:#2A66C6;}
	.st23{fill:#0F2D5C;}
	.st24{fill:#9EC8FF;}
	.st25{fill:#D5EBFE;}
	.st26{clip-path:url(#SVGID_8_);}
	.st27{fill:#255096;}
	.st28{fill:#FFC34E;}
	.st29{fill:#A1A654;}
	.st30{fill:#C1C765;}
	.st31{clip-path:url(#SVGID_10_);fill:#D5EBFE;}
	.st32{clip-path:url(#SVGID_12_);}
	.st33{fill:#A8CEFF;}
	.st34{fill:#93BBF0;}
	.st35{clip-path:url(#SVGID_14_);fill:#C6E0F7;}
	.st36{clip-path:url(#SVGID_16_);}
	.st37{fill:#2E2D3D;}
	.st38{fill:#BDCCD4;}
	.st39{fill:#D54A41;}
	.st40{clip-path:url(#SVGID_18_);fill:#C6E0F7;}
	.st41{clip-path:url(#SVGID_20_);}
	.st42{fill:#7A4E34;}
	.st43{fill:#9BD6E8;}
	.st44{fill:#F37168;}
	.st45{fill:#3E6BAB;}
</style>
<g>
	<path class="st0" d="M1599.9,488.7c384.2,16.8,645.2,602.7,357.4,907.8c-287.8,305-1355.9,195.8-1317.8-25.6
		s494.1-150.3,690.1-423.8S1490.3,483.9,1599.9,488.7z"/>
	<g>
		<g>
			<g>
				<path class="st1" d="M323.7,1041.6c-0.4,0-0.9-0.1-1.3-0.4l-20.5-12.2l-22.3,8.3c-1.3,0.5-2.7-0.2-3.2-1.5s0.2-2.7,1.5-3.2
					l23.4-8.7c0.7-0.3,1.5-0.2,2.1,0.2l21.5,12.8c1.2,0.7,1.6,2.2,0.9,3.4C325.4,1041.1,324.5,1041.6,323.7,1041.6z"/>
			</g>
			<g>
				<path class="st1" d="M1033.5,1462.8c-0.4,0-0.9-0.1-1.3-0.4l-44.4-26.3c-1.2-0.7-1.6-2.2-0.9-3.4c0.7-1.2,2.2-1.6,3.4-0.9
					l44.4,26.3c1.2,0.7,1.6,2.2,0.9,3.4C1035.2,1462.4,1034.3,1462.8,1033.5,1462.8z M944.7,1410.2c-0.4,0-0.9-0.1-1.3-0.4
					l-44.4-26.3c-1.2-0.7-1.6-2.2-0.9-3.4c0.7-1.2,2.2-1.6,3.4-0.9l44.4,26.3c1.2,0.7,1.6,2.2,0.9,3.4
					C946.4,1409.7,945.6,1410.2,944.7,1410.2z M856,1357.5c-0.4,0-0.9-0.1-1.3-0.4l-44.4-26.3c-1.2-0.7-1.6-2.2-0.9-3.4
					c0.7-1.2,2.2-1.6,3.4-0.9l44.4,26.3c1.2,0.7,1.6,2.2,0.9,3.4C857.7,1357.1,856.9,1357.5,856,1357.5z M767.3,1304.9
					c-0.4,0-0.9-0.1-1.3-0.4l-44.4-26.3c-1.2-0.7-1.6-2.2-0.9-3.4c0.7-1.2,2.2-1.6,3.4-0.9l44.4,26.3c1.2,0.7,1.6,2.2,0.9,3.4
					C769,1304.4,768.1,1304.9,767.3,1304.9z M678.6,1252.2c-0.4,0-0.9-0.1-1.3-0.4l-44.4-26.3c-1.2-0.7-1.6-2.2-0.9-3.4
					c0.7-1.2,2.2-1.6,3.4-0.9l44.4,26.3c1.2,0.7,1.6,2.2,0.9,3.4C680.3,1251.8,679.4,1252.2,678.6,1252.2z M589.8,1199.5
					c-0.4,0-0.9-0.1-1.3-0.4l-44.4-26.3c-1.2-0.7-1.6-2.2-0.9-3.4c0.7-1.2,2.2-1.6,3.4-0.9l44.4,26.3c1.2,0.7,1.6,2.2,0.9,3.4
					C591.5,1199.1,590.7,1199.5,589.8,1199.5z M501.1,1146.9c-0.4,0-0.9-0.1-1.3-0.4l-44.4-26.3c-1.2-0.7-1.6-2.2-0.9-3.4
					c0.7-1.2,2.2-1.6,3.4-0.9l44.4,26.3c1.2,0.7,1.6,2.2,0.9,3.4C502.8,1146.4,502,1146.9,501.1,1146.9z M412.4,1094.2
					c-0.4,0-0.9-0.1-1.3-0.4l-44.4-26.3c-1.2-0.7-1.6-2.2-0.9-3.4c0.7-1.2,2.2-1.6,3.4-0.9l44.4,26.3c1.2,0.7,1.6,2.2,0.9,3.4
					C414.1,1093.8,413.2,1094.2,412.4,1094.2z"/>
			</g>
			<g>
				<path class="st1" d="M1099.3,1501.9c-0.4,0-0.9-0.1-1.3-0.4l-21.5-12.8c-1.2-0.7-1.6-2.2-0.9-3.4c0.7-1.2,2.2-1.6,3.4-0.9
					l20.2,12l19.6-12.8c1.2-0.8,2.7-0.4,3.5,0.7c0.8,1.2,0.4,2.7-0.7,3.5l-20.9,13.6C1100.3,1501.8,1099.8,1501.9,1099.3,1501.9z"/>
			</g>
			<g>
				<path class="st1" d="M1164.7,1459.4c-0.8,0-1.6-0.4-2.1-1.1c-0.8-1.2-0.4-2.7,0.7-3.5l44.4-28.9c1.2-0.8,2.7-0.4,3.5,0.7
					c0.8,1.2,0.4,2.7-0.7,3.5L1166,1459C1165.6,1459.2,1165.1,1459.4,1164.7,1459.4z M1253.4,1401.5c-0.8,0-1.6-0.4-2.1-1.1
					c-0.8-1.2-0.4-2.7,0.7-3.5l44.4-28.9c1.2-0.8,2.7-0.4,3.5,0.7c0.8,1.2,0.4,2.7-0.7,3.5l-44.4,28.9
					C1254.4,1401.4,1253.9,1401.5,1253.4,1401.5z M1342.2,1343.7c-0.8,0-1.6-0.4-2.1-1.1c-0.8-1.2-0.4-2.7,0.7-3.5l44.4-28.9
					c1.2-0.8,2.7-0.4,3.5,0.7c0.8,1.2,0.4,2.7-0.7,3.5l-44.4,28.9C1343.1,1343.5,1342.7,1343.7,1342.2,1343.7z M1431,1285.8
					c-0.8,0-1.6-0.4-2.1-1.1c-0.8-1.2-0.4-2.7,0.7-3.5l44.4-28.9c1.2-0.8,2.7-0.4,3.5,0.7c0.8,1.2,0.4,2.7-0.7,3.5l-44.4,28.9
					C1431.9,1285.7,1431.4,1285.8,1431,1285.8z M1519.7,1228c-0.8,0-1.6-0.4-2.1-1.1c-0.8-1.2-0.4-2.7,0.7-3.5l44.4-28.9
					c1.2-0.8,2.7-0.4,3.5,0.7c0.8,1.2,0.4,2.7-0.7,3.5l-44.4,28.9C1520.7,1227.9,1520.2,1228,1519.7,1228z M1608.5,1170.1
					c-0.8,0-1.6-0.4-2.1-1.1c-0.8-1.2-0.4-2.7,0.7-3.5l44.4-28.9c1.2-0.8,2.7-0.4,3.5,0.7c0.8,1.2,0.4,2.7-0.7,3.5l-44.4,28.9
					C1609.4,1170,1608.9,1170.1,1608.5,1170.1z M1697.2,1112.3c-0.8,0-1.6-0.4-2.1-1.1c-0.8-1.2-0.4-2.7,0.7-3.5l44.4-28.9
					c1.2-0.8,2.7-0.4,3.5,0.7c0.8,1.2,0.4,2.7-0.7,3.5l-44.4,28.9C1698.2,1112.2,1697.7,1112.3,1697.2,1112.3z"/>
			</g>
			<g>
				<path class="st1" d="M1786,1054.5c-0.8,0-1.6-0.4-2.1-1.1c-0.8-1.2-0.4-2.7,0.7-3.5l20-13.1l4.1-23.6c0.2-1.4,1.5-2.3,2.9-2
					c1.4,0.2,2.3,1.5,2,2.9l-4.3,24.6c-0.1,0.7-0.5,1.3-1.1,1.7l-20.9,13.6C1786.9,1054.3,1786.5,1054.5,1786,1054.5z"/>
			</g>
			<g>
				<path class="st1" d="M1820.1,965.7c-0.1,0-0.3,0-0.4,0c-1.4-0.2-2.3-1.5-2-2.9l8.8-50.5c0.2-1.4,1.5-2.3,2.9-2
					c1.4,0.2,2.3,1.5,2,2.9l-8.8,50.5C1822.4,964.8,1821.3,965.7,1820.1,965.7z M1837.8,864.8c-0.1,0-0.3,0-0.4,0
					c-1.4-0.2-2.3-1.5-2-2.9l8.8-50.5c0.2-1.4,1.5-2.3,2.9-2c1.4,0.2,2.3,1.5,2,2.9l-8.8,50.5C1840,863.9,1839,864.8,1837.8,864.8z
					 M1855.5,763.8c-0.1,0-0.3,0-0.4,0c-1.4-0.2-2.3-1.5-2-2.9l8.8-50.5c0.2-1.4,1.5-2.3,2.9-2c1.4,0.2,2.3,1.5,2,2.9l-8.8,50.5
					C1857.7,763,1856.7,763.8,1855.5,763.8z M1873.2,662.9c-0.1,0-0.3,0-0.4,0c-1.4-0.2-2.3-1.5-2-2.9l8.8-50.5
					c0.2-1.4,1.5-2.3,2.9-2c1.4,0.2,2.3,1.5,2,2.9l-8.8,50.5C1875.4,662,1874.4,662.9,1873.2,662.9z M1890.9,561.9
					c-0.1,0-0.3,0-0.4,0c-1.4-0.2-2.3-1.5-2-2.9l8.8-50.5c0.2-1.4,1.5-2.3,2.9-2c1.4,0.2,2.3,1.5,2,2.9l-8.8,50.5
					C1893.1,561.1,1892.1,561.9,1890.9,561.9z"/>
			</g>
			<g>
				<path class="st1" d="M1908.6,461c-0.1,0-0.3,0-0.4,0c-1.4-0.2-2.3-1.5-2-2.9l3.8-21.9l-22.2-1.8c-1.4-0.1-2.4-1.3-2.3-2.7
					c0.1-1.4,1.3-2.4,2.7-2.3l24.9,2c0.7,0.1,1.3,0.4,1.8,1c0.4,0.6,0.6,1.3,0.5,2l-4.3,24.6C1910.8,460.1,1909.8,461,1908.6,461z"
					/>
			</g>
			<g>
				<g>
					<defs>
						<polygon id="SVGID_1_" points="177.1,397.7 161.8,220.7 382,26.7 722.2,180.7 2101.2,339.8 2101.2,607.4 582.4,445.2 						
							"/>
					</defs>
					<clipPath id="SVGID_2_">
						<use xlink:href="#SVGID_1_"  style="display:none;overflow:visible;"/>
					</clipPath>
					<path class="st2" d="M1837.8,430.4c-0.1,0-0.1,0-0.2,0l-50.2-4c-1.4-0.1-2.4-1.3-2.3-2.7c0.1-1.4,1.3-2.4,2.7-2.3l50.2,4
						c1.4,0.1,2.4,1.3,2.3,2.7C1840.2,429.4,1839.1,430.4,1837.8,430.4z M1737.5,422.5c-0.1,0-0.1,0-0.2,0l-50.2-4
						c-1.4-0.1-2.4-1.3-2.3-2.7c0.1-1.4,1.3-2.4,2.7-2.3l50.2,4c1.4,0.1,2.4,1.3,2.3,2.7C1739.8,421.5,1738.7,422.5,1737.5,422.5z
						 M1637.1,414.6c-0.1,0-0.1,0-0.2,0l-50.2-4c-1.4-0.1-2.4-1.3-2.3-2.7c0.1-1.4,1.3-2.4,2.7-2.3l50.2,4c1.4,0.1,2.4,1.3,2.3,2.7
						C1639.5,413.6,1638.4,414.6,1637.1,414.6z M1536.8,406.6c-0.1,0-0.1,0-0.2,0l-50.2-4c-1.4-0.1-2.4-1.3-2.3-2.7
						c0.1-1.4,1.3-2.4,2.7-2.3l50.2,4c1.4,0.1,2.4,1.3,2.3,2.7C1539.2,405.6,1538.1,406.6,1536.8,406.6z M1436.4,398.7
						c-0.1,0-0.1,0-0.2,0l-50.2-4c-1.4-0.1-2.4-1.3-2.3-2.7c0.1-1.4,1.3-2.4,2.7-2.3l50.2,4c1.4,0.1,2.4,1.3,2.3,2.7
						C1438.8,397.7,1437.7,398.7,1436.4,398.7z M1336.1,390.8c-0.1,0-0.1,0-0.2,0l-50.2-4c-1.4-0.1-2.4-1.3-2.3-2.7
						c0.1-1.4,1.3-2.4,2.7-2.3l50.2,4c1.4,0.1,2.4,1.3,2.3,2.7C1338.5,389.8,1337.4,390.8,1336.1,390.8z M1235.8,382.9
						c-0.1,0-0.1,0-0.2,0l-50.2-4c-1.4-0.1-2.4-1.3-2.3-2.7c0.1-1.4,1.3-2.4,2.7-2.3l50.2,4c1.4,0.1,2.4,1.3,2.3,2.7
						C1238.2,381.9,1237.1,382.9,1235.8,382.9z M1135.5,374.3c-0.1,0-0.2,0-0.3,0l-50-5.9c-1.4-0.2-2.4-1.4-2.2-2.8
						c0.2-1.4,1.4-2.4,2.8-2.2l50,5.9c1.4,0.2,2.4,1.4,2.2,2.8C1137.8,373.3,1136.8,374.3,1135.5,374.3z M1035.5,362.5
						c-0.1,0-0.2,0-0.3,0l-50-5.9c-1.4-0.2-2.4-1.4-2.2-2.8s1.4-2.4,2.8-2.2l50,5.9c1.4,0.2,2.4,1.4,2.2,2.8
						C1037.9,361.6,1036.8,362.5,1035.5,362.5z M935.6,350.7c-0.1,0-0.2,0-0.3,0l-50-5.9c-1.4-0.2-2.4-1.4-2.2-2.8s1.4-2.4,2.8-2.2
						l50,5.9c1.4,0.2,2.4,1.4,2.2,2.8C937.9,349.8,936.8,350.7,935.6,350.7z M835.6,338.9c-0.1,0-0.2,0-0.3,0l-50-5.9
						c-1.4-0.2-2.4-1.4-2.2-2.8s1.4-2.4,2.8-2.2l50,5.9c1.4,0.2,2.4,1.4,2.2,2.8C838,338,836.9,338.9,835.6,338.9z M191.9,333.6
						c-1.1,0-2.1-0.7-2.4-1.8c-0.4-1.3,0.4-2.7,1.7-3.1l48.3-14.1c1.3-0.4,2.7,0.4,3.1,1.7c0.4,1.3-0.4,2.7-1.7,3.1l-48.3,14.1
						C192.3,333.5,192.1,333.6,191.9,333.6z M735.7,327.2c-0.1,0-0.2,0-0.3,0l-50-5.9c-1.4-0.2-2.4-1.4-2.2-2.8s1.4-2.4,2.8-2.2
						l50,5.9c1.4,0.2,2.4,1.4,2.2,2.8C738,326.2,736.9,327.2,735.7,327.2z M635.7,315.4c-0.1,0-0.2,0-0.3,0l-50-5.9
						c-1.4-0.2-2.4-1.4-2.2-2.8s1.4-2.4,2.8-2.2l50,5.9c1.4,0.2,2.4,1.4,2.2,2.8C638.1,314.5,637,315.4,635.7,315.4z M288.5,305.3
						c-1.1,0-2.1-0.7-2.4-1.8c-0.4-1.3,0.4-2.7,1.7-3.1l48.3-14.1c1.3-0.4,2.7,0.4,3.1,1.7c0.4,1.3-0.4,2.7-1.7,3.1l-48.3,14.1
						C288.9,305.3,288.7,305.3,288.5,305.3z M535.8,303.6c-0.1,0-0.2,0-0.3,0l-50-5.9c-1.4-0.2-2.4-1.4-2.2-2.8
						c0.2-1.4,1.4-2.4,2.8-2.2l50,5.9c1.4,0.2,2.4,1.4,2.2,2.8C538.1,302.7,537,303.6,535.8,303.6z M435.8,291.8c-0.1,0-0.2,0-0.3,0
						l-50-5.9c-1.4-0.2-2.4-1.4-2.2-2.8c0.2-1.4,1.4-2.4,2.8-2.2l50,5.9c1.4,0.2,2.4,1.4,2.2,2.8
						C438.1,290.9,437.1,291.8,435.8,291.8z"/>
				</g>
			</g>
		</g>
		<g>
			<g class="st3">
				<path class="st4" d="M-856.9,782.7c-0.2,0-0.3,0-0.5-0.1l-24.5-5.2c-1.4-0.3-2.2-1.6-1.9-3c0.3-1.3,1.6-2.2,3-1.9l24.5,5.2
					c1.4,0.3,2.2,1.6,1.9,3C-854.7,781.9-855.7,782.7-856.9,782.7z"/>
			</g>
			<g class="st3">
				<path class="st4" d="M228.4,1013.1c-0.2,0-0.3,0-0.5-0.1l-49.3-10.5c-1.4-0.3-2.2-1.6-1.9-3s1.6-2.2,3-1.9l49.3,10.5
					c1.4,0.3,2.2,1.6,1.9,3C230.6,1012.3,229.5,1013.1,228.4,1013.1z M129.7,992.2c-0.2,0-0.3,0-0.5-0.1l-49.3-10.5
					c-1.4-0.3-2.2-1.6-1.9-3c0.3-1.3,1.6-2.2,3-1.9l49.3,10.5c1.4,0.3,2.2,1.6,1.9,3C131.9,991.4,130.9,992.2,129.7,992.2z
					 M31.1,971.2c-0.2,0-0.3,0-0.5-0.1l-49.3-10.5c-1.4-0.3-2.2-1.6-1.9-3c0.3-1.4,1.6-2.2,3-1.9l49.3,10.5c1.4,0.3,2.2,1.6,1.9,3
					C33.3,970.4,32.2,971.2,31.1,971.2z M-67.6,950.3c-0.2,0-0.3,0-0.5-0.1l-49.3-10.5c-1.4-0.3-2.2-1.6-1.9-3
					c0.3-1.4,1.6-2.2,3-1.9l49.3,10.5c1.4,0.3,2.2,1.6,1.9,3C-65.4,949.5-66.4,950.3-67.6,950.3z M-166.2,929.4
					c-0.2,0-0.3,0-0.5-0.1l-49.3-10.5c-1.4-0.3-2.2-1.6-1.9-3s1.6-2.2,3-1.9l49.3,10.5c1.4,0.3,2.2,1.6,1.9,3
					C-164.1,928.5-165.1,929.4-166.2,929.4z M-264.9,908.4c-0.2,0-0.3,0-0.5-0.1l-49.3-10.5c-1.4-0.3-2.2-1.6-1.9-3
					c0.3-1.3,1.6-2.2,3-1.9l49.3,10.5c1.4,0.3,2.2,1.6,1.9,3C-262.7,907.6-263.7,908.4-264.9,908.4z M-363.6,887.5
					c-0.2,0-0.3,0-0.5-0.1l-49.3-10.5c-1.4-0.3-2.2-1.6-1.9-3c0.3-1.4,1.6-2.2,3-1.9l49.3,10.5c1.4,0.3,2.2,1.6,1.9,3
					C-361.4,886.7-362.4,887.5-363.6,887.5z M-462.2,866.5c-0.2,0-0.3,0-0.5-0.1l-49.3-10.5c-1.4-0.3-2.2-1.6-1.9-3s1.6-2.2,3-1.9
					l49.3,10.5c1.4,0.3,2.2,1.6,1.9,3C-460,865.7-461.1,866.5-462.2,866.5z M-560.9,845.6c-0.2,0-0.3,0-0.5-0.1l-49.3-10.5
					c-1.4-0.3-2.2-1.6-1.9-3c0.3-1.3,1.6-2.2,3-1.9l49.3,10.5c1.4,0.3,2.2,1.6,1.9,3C-558.7,844.8-559.7,845.6-560.9,845.6z
					 M-659.5,824.6c-0.2,0-0.3,0-0.5-0.1l-49.3-10.5c-1.4-0.3-2.2-1.6-1.9-3c0.3-1.3,1.6-2.2,3-1.9l49.3,10.5c1.4,0.3,2.2,1.6,1.9,3
					C-657.3,823.8-658.4,824.6-659.5,824.6z M-758.2,803.7c-0.2,0-0.3,0-0.5-0.1l-49.3-10.5c-1.4-0.3-2.2-1.6-1.9-3
					c0.3-1.3,1.6-2.2,3-1.9l49.3,10.5c1.4,0.3,2.2,1.6,1.9,3C-756,802.9-757,803.7-758.2,803.7z"/>
			</g>
			<g class="st3">
				<path class="st4" d="M302.2,1028.8c-0.2,0-0.3,0-0.5-0.1l-24.5-5.2c-1.4-0.3-2.2-1.6-1.9-3c0.3-1.4,1.6-2.2,3-1.9l21.8,4.6
					l2.5-22.1c0.2-1.4,1.4-2.4,2.8-2.2s2.4,1.4,2.2,2.8l-2.8,24.8c-0.1,0.7-0.5,1.3-1,1.7C303.2,1028.6,302.7,1028.8,302.2,1028.8z"
					/>
			</g>
			<g>
				<path class="st1" d="M310.8,952.3c-0.1,0-0.2,0-0.3,0c-1.4-0.2-2.4-1.4-2.2-2.8l5.8-51.7c0.2-1.4,1.4-2.4,2.8-2.2
					s2.4,1.4,2.2,2.8l-5.8,51.7C313.1,951.3,312.1,952.3,310.8,952.3z M322.4,848.9c-0.1,0-0.2,0-0.3,0c-1.4-0.2-2.4-1.4-2.2-2.8
					l5.8-51.7c0.2-1.4,1.4-2.4,2.8-2.2s2.4,1.4,2.2,2.8l-5.8,51.7C324.8,848,323.7,848.9,322.4,848.9z M334.1,745.5
					c-0.1,0-0.2,0-0.3,0c-1.4-0.2-2.4-1.4-2.2-2.8l5.8-51.7c0.2-1.4,1.4-2.4,2.8-2.2s2.4,1.4,2.2,2.8l-5.8,51.7
					C336.4,744.6,335.3,745.5,334.1,745.5z M345.7,642.2c-0.1,0-0.2,0-0.3,0c-1.4-0.2-2.4-1.4-2.2-2.8l5.8-51.7
					c0.2-1.4,1.4-2.4,2.8-2.2s2.4,1.4,2.2,2.8l-5.8,51.7C348.1,641.2,347,642.2,345.7,642.2z M357.4,538.8c-0.1,0-0.2,0-0.3,0
					c-1.4-0.2-2.4-1.4-2.2-2.8l5.8-51.7c0.2-1.4,1.4-2.4,2.8-2.2c1.4,0.2,2.4,1.4,2.2,2.8l-5.8,51.7
					C359.7,537.9,358.6,538.8,357.4,538.8z M369,435.5c-0.1,0-0.2,0-0.3,0c-1.4-0.2-2.4-1.4-2.2-2.8l5.8-51.7
					c0.2-1.4,1.4-2.4,2.8-2.2c1.4,0.2,2.4,1.4,2.2,2.8l-5.8,51.7C371.3,434.5,370.2,435.5,369,435.5z"/>
			</g>
			<g>
				<path class="st1" d="M380.6,332.1c-0.1,0-0.2,0-0.3,0c-1.4-0.2-2.4-1.4-2.2-2.8l2.8-24.8c0.2-1.4,1.4-2.4,2.8-2.2
					c1.4,0.2,2.4,1.4,2.2,2.8l-2.8,24.8C383,331.2,381.9,332.1,380.6,332.1z"/>
			</g>
		</g>
		<g>
			<g>
				<path class="st1" d="M1857.8,1127c-0.6,0-1.2-0.2-1.7-0.6l-18.7-16.6c-1-0.9-1.1-2.5-0.2-3.5s2.5-1.1,3.5-0.2l18.7,16.6
					c1,0.9,1.1,2.5,0.2,3.5C1859.1,1126.7,1858.4,1127,1857.8,1127z"/>
			</g>
			<g>
				<path class="st1" d="M1801.8,1077.2c-0.6,0-1.2-0.2-1.7-0.6l-37.3-33.2c-1-0.9-1.1-2.5-0.2-3.5s2.5-1.1,3.5-0.2l37.3,33.2
					c1,0.9,1.1,2.5,0.2,3.5C1803.2,1077,1802.5,1077.2,1801.8,1077.2z M1727.3,1010.9c-0.6,0-1.2-0.2-1.7-0.6l-37.3-33.2
					c-1-0.9-1.1-2.5-0.2-3.5s2.5-1.1,3.5-0.2l37.3,33.2c1,0.9,1.1,2.5,0.2,3.5C1728.7,1010.6,1728,1010.9,1727.3,1010.9z
					 M1652.8,944.6c-0.6,0-1.2-0.2-1.7-0.6l-37.3-33.2c-1-0.9-1.1-2.5-0.2-3.5s2.5-1.1,3.5-0.2l37.3,33.2c1,0.9,1.1,2.5,0.2,3.5
					C1654.1,944.3,1653.4,944.6,1652.8,944.6z M1578.2,878.3c-0.6,0-1.2-0.2-1.7-0.6l-37.3-33.2c-1-0.9-1.1-2.5-0.2-3.5
					s2.5-1.1,3.5-0.2l37.3,33.2c1,0.9,1.1,2.5,0.2,3.5C1579.6,878,1578.9,878.3,1578.2,878.3z M1503.7,812c-0.6,0-1.2-0.2-1.7-0.6
					l-37.3-33.2c-1-0.9-1.1-2.5-0.2-3.5s2.5-1.1,3.5-0.2l37.3,33.2c1,0.9,1.1,2.5,0.2,3.5C1505.1,811.7,1504.4,812,1503.7,812z
					 M1429.2,745.7c-0.6,0-1.2-0.2-1.7-0.6l-37.3-33.2c-1-0.9-1.1-2.5-0.2-3.5s2.5-1.1,3.5-0.2l37.3,33.2c1,0.9,1.1,2.5,0.2,3.5
					C1430.5,745.4,1429.8,745.7,1429.2,745.7z M1354.6,679.4c-0.6,0-1.2-0.2-1.7-0.6l-37.3-33.2c-1-0.9-1.1-2.5-0.2-3.5
					s2.5-1.1,3.5-0.2l37.3,33.2c1,0.9,1.1,2.5,0.2,3.5C1356,679.1,1355.3,679.4,1354.6,679.4z M1280.1,613c-0.6,0-1.2-0.2-1.7-0.6
					l-37.3-33.2c-1-0.9-1.1-2.5-0.2-3.5s2.5-1.1,3.5-0.2l37.3,33.2c1,0.9,1.1,2.5,0.2,3.5C1281.5,612.8,1280.8,613,1280.1,613z"/>
			</g>
			<g>
				<path class="st1" d="M1205.6,546.7c-0.6,0-1.2-0.2-1.7-0.6l-17.3-15.4l-19.8,12c-1.2,0.7-2.7,0.3-3.4-0.8
					c-0.7-1.2-0.3-2.7,0.8-3.4l21.4-12.9c0.9-0.6,2.1-0.5,3,0.3l18.7,16.6c1,0.9,1.1,2.5,0.2,3.5
					C1206.9,546.4,1206.3,546.7,1205.6,546.7z"/>
			</g>
			<g>
				<path class="st1" d="M425.1,991c-0.8,0-1.7-0.4-2.1-1.2c-0.7-1.2-0.3-2.7,0.8-3.4l41.1-24.9c1.2-0.7,2.7-0.3,3.4,0.8
					c0.7,1.2,0.3,2.7-0.8,3.4l-41.1,24.9C426,990.9,425.5,991,425.1,991z M507.4,941.2c-0.8,0-1.7-0.4-2.1-1.2
					c-0.7-1.2-0.3-2.7,0.8-3.4l41.1-24.9c1.2-0.7,2.7-0.3,3.4,0.8c0.7,1.2,0.3,2.7-0.8,3.4l-41.1,24.9
					C508.3,941.1,507.8,941.2,507.4,941.2z M589.6,891.4c-0.8,0-1.7-0.4-2.1-1.2c-0.7-1.2-0.3-2.7,0.8-3.4l41.1-24.9
					c1.2-0.7,2.7-0.3,3.4,0.8c0.7,1.2,0.3,2.7-0.8,3.4L590.9,891C590.5,891.3,590.1,891.4,589.6,891.4z M671.9,841.7
					c-0.8,0-1.7-0.4-2.1-1.2c-0.7-1.2-0.3-2.7,0.8-3.4l41.1-24.9c1.2-0.7,2.7-0.3,3.4,0.8c0.7,1.2,0.3,2.7-0.8,3.4l-41.1,24.9
					C672.8,841.5,672.3,841.7,671.9,841.7z M754.2,791.9c-0.8,0-1.7-0.4-2.1-1.2c-0.7-1.2-0.3-2.7,0.8-3.4l41.1-24.9
					c1.2-0.7,2.7-0.3,3.4,0.8c0.7,1.2,0.3,2.7-0.8,3.4l-41.1,24.9C755.1,791.8,754.6,791.9,754.2,791.9z M836.4,742.1
					c-0.8,0-1.7-0.4-2.1-1.2c-0.7-1.2-0.3-2.7,0.8-3.4l41.1-24.9c1.2-0.7,2.7-0.3,3.4,0.8c0.7,1.2,0.3,2.7-0.8,3.4l-41.1,24.9
					C837.3,742,836.9,742.1,836.4,742.1z M918.7,692.4c-0.8,0-1.7-0.4-2.1-1.2c-0.7-1.2-0.3-2.7,0.8-3.4l41.1-24.9
					c1.2-0.7,2.7-0.3,3.4,0.8c0.7,1.2,0.3,2.7-0.8,3.4L920,692C919.6,692.2,919.1,692.4,918.7,692.4z M1001,642.6
					c-0.8,0-1.7-0.4-2.1-1.2c-0.7-1.2-0.3-2.7,0.8-3.4l41.1-24.9c1.2-0.7,2.7-0.3,3.4,0.8c0.7,1.2,0.3,2.7-0.8,3.4l-41.1,24.9
					C1001.9,642.5,1001.4,642.6,1001,642.6z M1083.2,592.8c-0.8,0-1.7-0.4-2.1-1.2c-0.7-1.2-0.3-2.7,0.8-3.4l41.1-24.9
					c1.2-0.7,2.7-0.3,3.4,0.8c0.7,1.2,0.3,2.7-0.8,3.4l-41.1,24.9C1084.1,592.7,1083.7,592.8,1083.2,592.8z"/>
			</g>
			<g>
				<path class="st1" d="M362.6,1028.8c-0.8,0-1.7-0.4-2.1-1.2c-0.7-1.2-0.3-2.7,0.8-3.4l21.4-12.9c1.2-0.7,2.7-0.3,3.4,0.8
					c0.7,1.2,0.3,2.7-0.8,3.4l-21.4,12.9C363.5,1028.7,363,1028.8,362.6,1028.8z"/>
			</g>
		</g>
		<g>
			<g>
				<path class="st1" d="M1859.1,487.8c-0.6,0-1.2-0.2-1.7-0.6c-1-0.9-1.1-2.5-0.2-3.5l16.8-18.5c0.9-1,2.5-1.1,3.5-0.2
					s1.1,2.5,0.2,3.5L1861,487C1860.5,487.5,1859.8,487.8,1859.1,487.8z"/>
			</g>
			<g>
				<path class="st1" d="M1099.8,1323.6c-0.6,0-1.2-0.2-1.7-0.6c-1-0.9-1.1-2.5-0.2-3.5l34.5-38c0.9-1,2.5-1.1,3.5-0.2
					s1.1,2.5,0.2,3.5l-34.5,38C1101.2,1323.3,1100.5,1323.6,1099.8,1323.6z M1168.8,1247.6c-0.6,0-1.2-0.2-1.7-0.6
					c-1-0.9-1.1-2.5-0.2-3.5l34.5-38c0.9-1,2.5-1.1,3.5-0.2s1.1,2.5,0.2,3.5l-34.5,38C1170.2,1247.3,1169.5,1247.6,1168.8,1247.6z
					 M1237.9,1171.6c-0.6,0-1.2-0.2-1.7-0.6c-1-0.9-1.1-2.5-0.2-3.5l34.5-38c0.9-1,2.5-1.1,3.5-0.2s1.1,2.5,0.2,3.5l-34.5,38
					C1239.2,1171.4,1238.5,1171.6,1237.9,1171.6z M1306.9,1095.7c-0.6,0-1.2-0.2-1.7-0.6c-1-0.9-1.1-2.5-0.2-3.5l34.5-38
					c0.9-1,2.5-1.1,3.5-0.2s1.1,2.5,0.2,3.5l-34.5,38C1308.3,1095.4,1307.6,1095.7,1306.9,1095.7z M1375.9,1019.7
					c-0.6,0-1.2-0.2-1.7-0.6c-1-0.9-1.1-2.5-0.2-3.5l34.5-38c0.9-1,2.5-1.1,3.5-0.2c1,0.9,1.1,2.5,0.2,3.5l-34.5,38
					C1377.3,1019.4,1376.6,1019.7,1375.9,1019.7z M1445,943.7c-0.6,0-1.2-0.2-1.7-0.6c-1-0.9-1.1-2.5-0.2-3.5l34.5-38
					c0.9-1,2.5-1.1,3.5-0.2c1,0.9,1.1,2.5,0.2,3.5l-34.5,38C1446.3,943.4,1445.6,943.7,1445,943.7z M1514,867.7
					c-0.6,0-1.2-0.2-1.7-0.6c-1-0.9-1.1-2.5-0.2-3.5l34.5-38c0.9-1,2.5-1.1,3.5-0.2c1,0.9,1.1,2.5,0.2,3.5l-34.5,38
					C1515.3,867.4,1514.7,867.7,1514,867.7z M1583,791.7c-0.6,0-1.2-0.2-1.7-0.6c-1-0.9-1.1-2.5-0.2-3.5l34.5-38
					c0.9-1,2.5-1.1,3.5-0.2c1,0.9,1.1,2.5,0.2,3.5l-34.5,38C1584.4,791.4,1583.7,791.7,1583,791.7z M1652.1,715.7
					c-0.6,0-1.2-0.2-1.7-0.6c-1-0.9-1.1-2.5-0.2-3.5l34.5-38c0.9-1,2.5-1.1,3.5-0.2c1,0.9,1.1,2.5,0.2,3.5l-34.5,38
					C1653.4,715.5,1652.7,715.7,1652.1,715.7z M1721.1,639.8c-0.6,0-1.2-0.2-1.7-0.6c-1-0.9-1.1-2.5-0.2-3.5l34.5-38
					c0.9-1,2.5-1.1,3.5-0.2c1,0.9,1.1,2.5,0.2,3.5l-34.5,38C1722.4,639.5,1721.8,639.8,1721.1,639.8z M1790.1,563.8
					c-0.6,0-1.2-0.2-1.7-0.6c-1-0.9-1.1-2.5-0.2-3.5l34.5-38c0.9-1,2.5-1.1,3.5-0.2c1,0.9,1.1,2.5,0.2,3.5l-34.5,38
					C1791.5,563.5,1790.8,563.8,1790.1,563.8z"/>
			</g>
			<g>
				<path class="st1" d="M1048.5,1380.1c-0.6,0-1.2-0.2-1.7-0.6c-1-0.9-1.1-2.5-0.2-3.5l16.8-18.5c0.9-1,2.5-1.1,3.5-0.2
					s1.1,2.5,0.2,3.5l-16.8,18.5C1049.8,1379.8,1049.2,1380.1,1048.5,1380.1z"/>
			</g>
		</g>
	</g>
	<g>
		<g>
			<defs>
				<circle id="SVGID_3_" cx="322.1" cy="996.9" r="320.2"/>
			</defs>
			<clipPath id="SVGID_4_">
				<use xlink:href="#SVGID_3_"  style="overflow:visible;"/>
			</clipPath>
			
				<ellipse transform="matrix(0.7071 -0.7071 0.7071 0.7071 -610.5555 519.7847)" class="st5" cx="322.2" cy="996.9" rx="320.2" ry="320.2"/>
		</g>
		<g>
			<defs>
				
					<ellipse id="SVGID_5_" transform="matrix(0.7071 -0.7071 0.7071 0.7071 -610.5555 519.7847)" cx="322.2" cy="996.9" rx="320.2" ry="320.2"/>
			</defs>
			<clipPath id="SVGID_6_">
				<use xlink:href="#SVGID_5_"  style="overflow:visible;"/>
			</clipPath>
			<g class="st6">
				<path class="st7" d="M270.5,739c48.6-43.3,84.4-17.5,110.9,11.4c21.2,23,24.2,28.1,41.7,52c2.6,3.5,4.6,7.5,4.7,11.9
					c0.5,26.4,14,137.8-1,176.3c-17.5,44.8-233,65.4-233,65.4L270.5,739z"/>
				<g>
					<path class="st7" d="M408.5,1016.3c-1.3,0-2.4-1-2.4-2.3c-0.1-1.3,1-2.5,2.3-2.6c6.3-0.3,11.5-3.2,15.8-8.7
						c24.1-31.3,10.5-135.7-1.3-192.5c-0.3-1.3,0.6-2.6,1.9-2.9c1.3-0.3,2.6,0.6,2.9,1.9c2.6,12.4,11.2,56.5,13.9,102.4
						c2.8,47.2-1.8,78.9-13.5,94.1c-5.1,6.6-11.6,10.2-19.4,10.6C408.6,1016.3,408.6,1016.3,408.5,1016.3z"/>
				</g>
				<path class="st7" d="M288.7,726.1c-93.5,51.7-36.5,226.5-155,288.8c-32.8,17.3-133.7,104.9-67.6,220.4
					c43.2,75.6,172.5,59.3,215.1-7.6C323.7,1160.8,288.7,726.1,288.7,726.1z"/>
				<g>
					<path class="st7" d="M40,1123.7c-0.1,0-0.2,0-0.3,0c-1.3-0.2-2.3-1.4-2.1-2.7c0.1-0.6,2.1-15.4,11.5-34.9
						c8.6-18,25.3-43.6,56-63.1c54.8-34.9,91.2-67.8,134.2-229.8c0.3-1.3,1.7-2.1,3-1.7c1.3,0.3,2.1,1.7,1.7,3
						c-20.8,78.4-41.4,131.4-64.9,166.8c-21.8,32.9-44.3,48.7-71.4,65.9c-56.9,36.2-65.2,93.9-65.3,94.5
						C42.2,1122.8,41.2,1123.7,40,1123.7z"/>
				</g>
				<g>
					<path class="st7" d="M42,1078.4c-0.4,0-0.9-0.1-1.3-0.4c-1.1-0.7-1.5-2.2-0.8-3.4c13.6-21.5,30.9-39.1,51.4-52.4
						c77-49.8,89.7-78.4,153.3-242.4c0.5-1.3,1.9-1.9,3.2-1.4s1.9,1.9,1.4,3.2c-31.8,82-50.8,130.1-71.6,164.2
						c-22.4,36.6-47.6,57.3-83.6,80.5c-19.9,12.9-36.7,30-49.9,50.9C43.6,1078,42.8,1078.4,42,1078.4z"/>
				</g>
				<path class="st8" d="M285.5,835.2c-32.2,66.8-27.2,127.5-27.2,127.5s3.7,23.5,18.6,28.5s35.9-9.9,34.7-29.7
					c-1.2-19.8,5-68.1,12.4-85.4C331.3,858.7,285.5,835.2,285.5,835.2z"/>
				<path class="st9" d="M115.4,1299.6c2,18.2-2.5,16.7,13.7,19.8c16.2,3,45.1-8.1,45.1-8.1l-32.4-60.3L115.4,1299.6z"/>
				<path class="st8" d="M262.1,926.8c-9.1,29.6-77.5,6.8-101.4,13.7c-23.9,6.8-44.5,107.1-47.9,197.2c-3.4,90,1.1,161.9,10.3,173.3
					c9.1,11.4,159.6,16,173.3,11.4s-114-61.6-114-61.6s-8-104.9,2.3-158.4c10.3-53.6,102.6-124.2,102.6-124.2L262.1,926.8z"/>
				<path class="st8" d="M294,935.9c23.9,36.5,86.6,31.9,108.3,61.6c21.7,29.6,67.2,192.6,67.2,192.6l47.9-165.3
					c0,0,38.8-6.5,26.2,20.5c-22.4,48.1-30.8,203.2-55.1,225.3c-27,24.5-54,4.6-69.1-38.3c-14.7-41.5-51.3-131.1-77.5-165.3
					c-26.2-34.2-54.7-88.9-54.7-88.9L294,935.9z"/>
				<path class="st10" d="M190.3,940.5c47.9,55.9,141.3,53.6,161.9,46.7c20.5-6.8,20.5-6.8,20.5-6.8s16-5.7,29.6,10.3
					c13.7,16,46.7,116.3,52.4,139.1c5.7,22.8,14.8,60.4,14.8,60.4s-24.5,29.4-24.5,59s10.4,29.9,10.4,29.9s-30.4-6.8-37.2-25
					c-6.8-18.2-68.4-183.5-68.4-183.5L180,1074l2.3,186.9c0,0-14.8-13.7-35.3,0s-27.4,45.6-23.9,50.2c3.4,4.6-6.8,4.6-6.8,1.1
					c0-3.4-19.4-86.6-5.7-223.4s39.9-151.6,54.7-152.7C180.1,934.8,190.3,940.5,190.3,940.5z"/>
				<g>
					<path class="st9" d="M448.5,1276.6c0.3,0.1,0.5,0.1,0.5,0.1S448.9,1276.7,448.5,1276.6z"/>
					<path class="st9" d="M455.1,1194.2c-9.9,3-26.6,38-26.6,38s-38-82.8-49.4-197.6l-13.6,77.8c18.7,50.3,48.1,129.1,52.7,141.4
						c6.3,16.7,31.5,23.6,34.9,24.4c-0.9-0.3-3-1.6-4.8-6.6c-1-0.9-6.7-3.6-7.8-4.6c-9.1-8.4-5.3-28.1,0.8-50.2
						C447.5,1195,465,1191.2,455.1,1194.2z"/>
				</g>
				<path class="st9" d="M188.2,1073.7l-18.8-86.1c-20.5,28.9-22.8,127.7-14.4,195.3c6.9,55.5,17.1,69.9,24.2,75.6
					c2.1,1.2,3.2,2.3,3.2,2.3l-2.3-186.9L188.2,1073.7z"/>
				<path class="st10" d="M133.7,986.8c35,94.2,17.5,113.2,63.5,223.8c25.7,61.8,75.2,108.3,75.2,108.3s39.9,10.3,90,6.8
					c50.2-3.4,86.9-6.9,86.9-6.9s-52.7-31.9-55-53.5c-2.3-21.7-12.2-107.6,0.7-168.4c10.1-47.5-31.5-94.9-31.5-94.9l-69.5-3.4
					L133.7,986.8z"/>
				<path class="st11" d="M195.2,1131.2c-6.1-22,25.8,6.8,78.3,12.2c52.4,5.3,110.9-3,82.1,6.1c-28.9,9.1-107.9-4.6-93.5,24.3
					c17,34,37.1,66.9,66.1,86.6c19,12.9,64.6,25.1,20.5,18.2c-44.1-6.8-91.2-58.5-111.7-92C216.5,1153.2,196.6,1136.1,195.2,1131.2z
					"/>
				<path class="st12" d="M311.3,952.8c0.5-22.7,6-61.6,12.5-76.7c5.3-12.4-16.7-28-29.6-35.8l-10.9-0.5c-1.7,3.6-3.2,7.2-4.7,10.8
					c-11.5,75.7,23,106.9,39.4,113.2c7.1,2.7,15.1,3,21.9,2.4C329.8,962.5,319.9,958.4,311.3,952.8z"/>
				<g>
					<path class="st13" d="M290.5,986.5c-4,0-8.1-0.5-12.2-1.5c-9.5-2.3-32.3-11.2-37.6-42.9c-0.1-0.8,0.4-1.5,1.1-1.6
						c0.8-0.1,1.5,0.4,1.6,1.1c5,30.1,26.5,38.5,35.5,40.7c14,3.4,28.8,0.3,34.5-7.3c4.6-6.1,1.8-19,1.8-19.1
						c-0.2-0.7,0.3-1.5,1.1-1.6c0.8-0.2,1.5,0.3,1.6,1.1c0.1,0.6,3,14.3-2.3,21.4C310.9,983,301.3,986.5,290.5,986.5z"/>
				</g>
				<path class="st8" d="M397.7,864.9c-7.7,40.8-25.6,73.8-55.8,67.6c-30.2-6.2-62-49.3-53.6-90s39.6-68.7,69.9-62.5
					C388.4,786.2,408,810.5,397.7,864.9z"/>
				<path class="st8" d="M505.3,1066.6c0,0-55.9,150.1-58.5,165.7c-2.7,15.6,2.7,25.5,4.2,25.5s49-81.3,49-81.3L505.3,1066.6z"/>
				<path class="st8" d="M507.6,1060c4.6-15.2-2.5-34.4-2.5-34.4l20.3,2.5L507.6,1060z"/>
				<g>
					<path class="st14" d="M529.8,1034h-56.5c-3.4,0-5.9-3.3-4.9-6.6l35.7-119.7c0.6-2.2,2.6-3.7,4.9-3.7h56.5
						c3.4,0,5.9,3.3,4.9,6.6l-35.7,119.7C534.1,1032.6,532.1,1034,529.8,1034z"/>
					<path class="st15" d="M536.9,1034h-56.5c-3.4,0-5.9-3.3-4.9-6.6l35.7-119.7c0.6-2.2,2.6-3.7,4.9-3.7h56.5
						c3.4,0,5.9,3.3,4.9,6.6l-35.7,119.7C541.2,1032.6,539.2,1034,536.9,1034z"/>
					<path class="st16" d="M496,947.3c-6,21.7-10.1,39.6-9.1,39.8c1,0.3,6.7-17.1,12.8-38.8c6-21.7,10.1-39.6,9.1-39.8
						C507.7,908.2,502,925.6,496,947.3z"/>
				</g>
				<path class="st8" d="M534.4,1069.6c1.7-19.7,18.8-38.2,25.3-44.1c2-1.8,3.1-4.3,3.1-7c-0.1-9.8-0.5-33.1-2.6-35.8
					c-2.6-3.5-9.1-47.9-12.1-46.2s0.9,40.6,0.9,40.6s-7.3-3.5-11.2-5.2s-19.9,16-19.9,16s-7.5,18.9,13,10.8
					c24.3-9.6,6.1,17.2-10.1,34.4c-13.4,14.2-2,17.3-2,17.3l10.8-0.4L534.4,1069.6z"/>
				<g>
					<path class="st13" d="M528.3,1085.2c-1.8,0-3.8-0.3-5.9-0.9c-5.3-1.6-14.5-7-17-24c-0.1-0.8,0.4-1.5,1.2-1.6
						c0.7-0.1,1.5,0.4,1.6,1.2c2,14.3,8.9,19.6,14.3,21.5c4.5,1.6,8.3,1,9.4,0.4c0.1-0.5,0.4-0.8,0.8-1c0.7-0.3,1.5,0.1,1.8,0.8
						c0.3,0.7,0.1,1.4-0.4,2C533.2,1084.6,531,1085.2,528.3,1085.2z"/>
				</g>
				<g>
					<path class="st13" d="M526.1,1080.4c-1.7,0-3.4-0.1-5.1-0.4c-9.8-1.4-16.4-6.4-18.1-13.7c-0.2-0.7,0.3-1.5,1-1.7s1.5,0.3,1.7,1
						c1.5,6.6,7.5,9.6,12.2,10.8c7.1,1.9,13.9,0.9,14.8-0.1c0.4-0.7,1.2-0.9,1.9-0.5s0.9,1.2,0.5,1.9
						C534,1079.6,530.3,1080.4,526.1,1080.4z"/>
				</g>
				<g>
					<path class="st17" d="M363,886.4c-0.6,0-1.3,0-1.9-0.1c-9.7-1.5-15.6-14-13.4-28.4s11.6-24.6,21.3-23.1
						c9.7,1.5,15.6,14,13.4,28.4C380.3,876.6,372,886.4,363,886.4z M367.2,839.5c-6.4,0-13,8.4-14.6,19.1
						c-1.7,11.4,2.5,21.8,9.3,22.9c6.8,1,14-7.7,15.7-19c1.7-11.4-2.5-21.8-9.3-22.9C367.9,839.5,367.6,839.5,367.2,839.5z"/>
				</g>
				<g>
					<path class="st17" d="M394.7,886.4c-0.3,0-0.6,0-1-0.1c-6.5-1-9.9-11.5-7.9-24.4s8.4-21.9,14.8-20.9c6.5,1,9.9,11.5,7.9,24.4
						c-0.9,5.8-2.8,11.2-5.3,15C400.7,884.3,397.7,886.4,394.7,886.4z M399.7,844.6c-3.6,0-8.6,7.1-10.2,17.9
						c-1.7,11.2,1.2,19.6,4.8,20.2c1.8,0.3,3.9-1.3,5.9-4.3c2.3-3.4,4-8.3,4.8-13.6c1.7-11.2-1.2-19.6-4.8-20.2
						C400,844.6,399.8,844.6,399.7,844.6z"/>
				</g>
				<g>
					<path class="st17" d="M352.5,848.6c-0.2,0-0.4,0-0.7-0.1l-74.5-21.3c-1.3-0.4-2-1.7-1.7-3c0.4-1.3,1.7-2,3-1.7l74.5,21.3
						c1.3,0.4,2,1.7,1.7,3C354.6,847.9,353.6,848.6,352.5,848.6z"/>
				</g>
				<path class="st7" d="M405.7,802.1c-115.3,67.9-121.6,22.3-121.6,22.3l6.8-64.8l68.4,3.8L405.7,802.1z"/>
				<path class="st8" d="M293.1,839.5c2.7,11.5-1,22.1-8.2,23.8s-15.2-6.3-17.9-17.7c-2.7-11.5,1-22.1,8.2-23.8
					C282.4,820,290.4,828,293.1,839.5z"/>
				<path class="st13" d="M285.2,854.5c0,2.5-2,4.5-4.5,4.5s-4.5-2-4.5-4.5s2-4.5,4.5-4.5C283.1,850,285.2,852,285.2,854.5z"/>
				<path class="st8" d="M318.3,1287.4c0,0,31.2-13.7,40.3-7.6c9.1,6.1,35.5,33.9,35.5,33.9L318.3,1287.4z"/>
				<path class="st15" d="M392.4,1316.3c-0.6,0.7-1.5,1.1-2,0.7l-64.1-47.7c-3.5-2.6-5.1-6.5-3.4-8.6s5.9-1.3,9.1,1.5l60.6,52.1
					C393.1,1314.6,392.9,1315.5,392.4,1316.3z"/>
				<path class="st8" d="M224.1,1281.6c0,0,51.7,20.5,57.8,20.5c6.1,0,40-22.8,51.4-19.8s67.1,31.2,65.6,33.4
					c-1.5,2.3-17.5,7.6-64.6,6.1s-123.9-8.4-123.9-8.4L224.1,1281.6z"/>
			</g>
		</g>
	</g>
	<g>
		<path class="st18" d="M1051.2,1643.7c0,0-271-188.2-385.6-79.7c-91.5,86.7,70.9,188.5,278.8,161.1c146.3-19.3,162.9,8.7,188.5,8.1
			c190.7-14.6,447.6-71.7,322.6-161.3c-170.3-122.1-285.5,7.3-344.9,39.6C1051.2,1643.7,1051.2,1643.7,1051.2,1643.7z"/>
		<path class="st19" d="M1401.5,1567.4c-71.2-14.7-342.5,85.9-342.5,85.9s-236.3-71.2-292.8-78s-82.5,14.7-82.5,14.7
			s26.7-30.1,57.7-32.8c31-2.7,75.7-10.2,75.7-10.2s452.2-21.5,512.1-7.9S1401.5,1567.4,1401.5,1567.4z"/>
		<path class="st20" d="M1017.3,1201.1c-10.7,1.7-177.8,74.6-179.8,105.1s45.8,278.1,138.2,310.3c92.5,32.2,195.9,0,195.9,0
			s108.5-267.9,76.3-318.8s-178-96.6-178-96.6H1017.3z"/>
		<path class="st20" d="M894.5,1258.8c-159.6,85.5-198.8,239.9-156.6,273.9c29.6,23.8,141.1,76.6,237.7,73.2s187.4,5.7,187.4,5.7
			s165.8-33.7,198.9-83.4c33.1-49.7-58.7-211.1-140.9-257.7C1138.8,1223.8,894.5,1258.8,894.5,1258.8z"/>
		<path class="st8" d="M1046.7,1297.8c-22.1,0-40.1-18.1-40.1-40.1v-135.1c0-22.1,18.1-40.1,40.1-40.1c22.1,0,40.1,18.1,40.1,40.1
			v135.1C1086.8,1279.7,1068.7,1297.8,1046.7,1297.8z"/>
		<path class="st12" d="M1046.7,1082.4c-22.1,0-40.1,18.1-40.1,40.1V1233c23.7,19.8,46.6,9.4,80.3-16.7v-93.8
			C1086.8,1100.5,1068.7,1082.4,1046.7,1082.4z"/>
		<path class="st8" d="M1134.8,1128c-6.6,13.5-17.3,20.9-23.9,16.7c-6.6-4.3-6.6-18.6,0-32.1s17.3-20.9,23.9-16.7
			C1141.3,1100.2,1141.4,1114.6,1134.8,1128z"/>
		<path class="st8" d="M979.5,1113.6c7.6,12.3,9.1,27.1,3.3,33.1s-16.7,1-24.3-11.3s-9.1-27.1-3.3-33.1
			C961,1096.3,971.9,1101.4,979.5,1113.6z"/>
		<ellipse class="st8" cx="1048.5" cy="1127.2" rx="69" ry="88.9"/>
		<path class="st21" d="M1199,1347.1c45.2,24.1,84.6,115.5,84.6,115.5s-101.7,15.8-122.8,31.7c-21.1,15.8,3-6,15.1-49.7
			S1199,1347.1,1199,1347.1z"/>
		<path class="st21" d="M884.2,1340.5c10.6,48.2,61,182.9,61,182.9s-46.8-53.3-96.5-56.3s-68.1-3.8-67.8,8.3
			c0.1,2.4,8.3-53.5,46.7-88.2C866.1,1352.6,884.2,1340.5,884.2,1340.5z"/>
		<path class="st22" d="M1187.3,1644.2h-273c-11,0-20.4-7.9-22.2-18.8l-32.9-196.5c-2.3-13.7,8.3-26.2,22.2-26.2h338.9
			c13.9,0,24.5,12.5,22.2,26.2l-32.9,196.5C1207.7,1636.3,1198.3,1644.2,1187.3,1644.2z"/>
		<path class="st1" d="M1187.3,1644.2h-273c-11,0-20.4-7.7-22.2-18.1l-32.9-189.4c-2.3-13.2,8.3-25.3,22.2-25.3h338.9
			c13.9,0,24.5,12.1,22.2,25.3l-32.9,189.4C1207.7,1636.5,1198.3,1644.2,1187.3,1644.2z"/>
		<path class="st19" d="M1086.8,1721.6c-1.6-0.3-176.3-44-215.3-11.8s130.6,32.8,161.1,25.7
			C1063.1,1728.5,1086.8,1721.6,1086.8,1721.6z"/>
		<path class="st19" d="M1125.8,1729.4c0,0,37.3-28.1,86.5-23s91.6,15.8,49.2,29.1c-42.4,13.3-86.5,15-106.8,13.3
			C1134.3,1747.1,1125.8,1729.4,1125.8,1729.4z"/>
		<path class="st23" d="M1026.5,1001.9c-44.8,13.6-29.2,139.8,22,135.7c51.3-4.2,53.3-58.7,49.7-94.1
			C1094.5,1008.1,1072.7,987.9,1026.5,1001.9z"/>
		<path class="st23" d="M1010.3,1095.5c-12.5-12-29.6,25.7-22.9,42.2c6.8,16.5-2.7,26.2,6.4,44c9.1,17.8-16.8-11.3-20.5-32.6
			c-3.6-21.3-5.7-58.2-10.9-74.8c-5.2-16.6,0.3-45.5,23.4-51.5c23.2-6,28.6-16.6,37.4-17.2c8.8-0.5,50.9,3.6,71.7,15.1
			c20.8,11.4,32.2,28.6,30.7,54.6c-1.6,26-8.3,92.5-14.6,103.4c-6.2,10.9-9.5,8.3-7.6,2.1c1.9-6.2,8.6-43.7,3.4-57.2
			s-2.6-46.8-16.1-49.4s-10.4,20.4-26.5,22.2C1048.3,1098,1010.3,1095.5,1010.3,1095.5z"/>
	</g>
	<g>
		<path class="st24" d="M764.6,814.2H518.4c-7.8,0-14.2-6.4-14.1-14.3l1.3-102.3c0.1-7.8,6.6-14.3,14.5-14.3h246.2
			c7.8,0,14.2,6.4,14.1,14.3l-1.3,102.3C779,807.8,772.5,814.2,764.6,814.2z"/>
		<path class="st17" d="M752.5,803.5H530.8c-6.8,0-12.3-5.6-12.2-12.4l1.1-84.7c0.1-6.8,5.7-12.4,12.5-12.4h221.7
			c6.8,0,12.3,5.6,12.2,12.4l-1.1,84.7C764.9,797.9,759.3,803.5,752.5,803.5z"/>
		<path class="st24" d="M614,808.2c-1.5,53.9-27.1,70.6-27.1,70.6s11.5-30.9,3-46s-22.7-21.4-22.7-21.4L614,808.2z"/>
		<path class="st24" d="M742.5,724.2H599.6c-2.3,0-4.2-1.9-4.2-4.3v-0.2c0-2.3,2-4.3,4.3-4.3h142.9c2.3,0,4.2,1.9,4.2,4.3v0.2
			C746.8,722.3,744.8,724.2,742.5,724.2z"/>
		<path class="st24" d="M742.2,742.4H599.3c-2.3,0-4.2-1.9-4.2-4.3v-0.2c0-2.3,2-4.3,4.3-4.3h142.9c2.3,0,4.2,1.9,4.2,4.3v0.2
			C746.5,740.5,744.6,742.4,742.2,742.4z"/>
		<path class="st24" d="M742,763H599.1c-2.3,0-4.2-1.9-4.2-4.3v-0.2c0-2.3,2-4.3,4.3-4.3h142.9c2.3,0,4.2,1.9,4.2,4.3v0.2
			C746.3,761.1,744.3,763,742,763z"/>
		<path class="st24" d="M582.4,738.9c-0.2,15.5-10.7,28.1-23.3,28.1c-12.7,0-22.8-12.6-22.6-28.1s10.7-28.1,23.4-28.1
			C572.5,710.7,582.6,723.3,582.4,738.9z"/>
	</g>
	<g>
		<path class="st24" d="M970.4,1000.5H721c-8,0-14.4-6.5-14.3-14.5l1.3-103.6c0.1-8,6.7-14.5,14.6-14.5H972
			c7.9,0,14.4,6.5,14.3,14.5L985,986C984.9,994,978.3,1000.5,970.4,1000.5z"/>
		<path class="st17" d="M958.1,989.6H733.6c-6.9,0-12.4-5.6-12.4-12.5l1.1-85.8c0.1-6.9,5.8-12.5,12.7-12.5h224.5
			c6.9,0,12.4,5.6,12.4,12.5l-1.1,85.8C970.7,984,965,989.6,958.1,989.6z"/>
		<path class="st24" d="M851.9,994.4c0.1,54.6,25.6,71.5,25.6,71.5s-10.8-31.3-1.8-46.6c9-15.3,23.6-21.7,23.6-21.7L851.9,994.4z"/>
		<path class="st24" d="M871.5,916.6H749.3c-2.2,0-4-1.8-3.9-4v-0.9c0-2.2,1.8-4,4-4h122.1c2.2,0,4,1.8,3.9,4v0.9
			C875.5,914.8,873.7,916.6,871.5,916.6z"/>
		<path class="st24" d="M871.3,935H749.1c-2.2,0-4-1.8-3.9-4v-0.9c0-2.2,1.8-4,4-4h122.1c2.2,0,4,1.8,3.9,4v0.9
			C875.3,933.2,873.4,935,871.3,935z"/>
		<path class="st24" d="M871,955.9H748.8c-2.2,0-4-1.8-3.9-4V951c0-2.2,1.8-4,4-4H871c2.2,0,4,1.8,3.9,4v0.9
			C875,954.1,873.2,955.9,871,955.9z"/>
		<path class="st24" d="M930.3,963.1h-17.7c-8,0-14.4-6.5-14.3-14.5l0.5-36.1c0.1-8,6.7-14.5,14.6-14.5h17.7c8,0,14.4,6.5,14.3,14.5
			l-0.5,36.1C944.8,956.6,938.2,963.1,930.3,963.1z"/>
	</g>
	<g>
		<ellipse class="st25" cx="1160.6" cy="402" rx="351" ry="351"/>
		<g>
			<g>
				<defs>
					<circle id="SVGID_7_" cx="1160.6" cy="402" r="351"/>
				</defs>
				<clipPath id="SVGID_8_">
					<use xlink:href="#SVGID_7_"  style="overflow:visible;"/>
				</clipPath>
				<g class="st26">
					<path class="st27" d="M1102.5,416.6c0,0-12.3,11.4-27.7,4c-15.4-7.4-71.5-47-69.8-56.7s27.9-12,27.9-12
						S1114.3,416.1,1102.5,416.6z"/>
					<path class="st28" d="M1087.8,415.1c10.5-1.7-24.1-29.2-35.4-40.6s-18.6-16.7-18.6-16.7s-19.3,2.4-19.3,6.1
						c0,3.8,55.5,48.1,55.5,48.1S1083,415.8,1087.8,415.1z"/>
					<path class="st8" d="M1155.7,464.6c0,0-20.2-34.1-29.9-43.2c-9.7-9.1-42.3-26.8-47.3-26.9c-8.5-0.2,29.1,25.2,29.1,25.2
						s-5.1,33-0.6,45c4.6,11.9,52.4,27.9,52.4,27.9L1155.7,464.6z"/>
					<path class="st29" d="M1193.2,500.4c0,0-33-49.5-40.4-46.1s-27.3,46.1-27.3,46.1s58,60.3,58,48.9
						C1183.6,538,1193.2,500.4,1193.2,500.4z"/>
					<path class="st8" d="M1284.5,235.3c0,0,34.1,120.6,56.9,170.7s34.1,143.4,29.6,307.3c-4.6,163.9,27.3,159.3-20.5,179.8
						s-218.5-13.7-241.3-66c-22.8-52.4,15.2-265.5,71.7-343.7c55.7-77.2,80.8-104.7,80.8-122.9c0-18.2-22-95.6-22-95.6L1284.5,235.3
						z"/>
					<path class="st30" d="M1109.2,827.1c-22.8-52.4,15.2-265.5,71.7-343.7c26-36,45.3-61.1,58.5-79.6c27-16.1,56.9-31.2,85.5-39.9
						c5.7,16.1,11.4,30.9,16.5,42.1c22.8,50.1,34.1,143.4,29.6,307.3c-4.6,163.9,27.3,159.3-20.5,179.8
						C1302.7,913.6,1132,879.4,1109.2,827.1z"/>
					<path class="st30" d="M1345.2,342.3c-0.6-9.4-122.2,38.7-122.9,47.8c-0.8,9.1-7.9,43.1-18,61.4S1373.6,572,1367,522.2
						C1360.4,472.4,1346.7,367.3,1345.2,342.3z"/>
					<path class="st12" d="M1261.6,362.5c0.1-0.7,0.1-1.4,0.1-2c0-18.2-22-95.6-22-95.6l44.8-29.6c0,0,7.9,28,18.7,62.6
						C1289.3,339.5,1276.3,353.6,1261.6,362.5z"/>
					<path class="st8" d="M1158.9,294.4c9.5,42.9,39.1,73.4,73.3,65c25.1-6.2,63.7-41.3,51.3-92.5c-10.3-42.7-45.1-71.5-79.5-63.9
						C1169.7,210.5,1149.4,251.5,1158.9,294.4z"/>
					<path class="st8" d="M1120,573.6c-31.1-53.7-34.6-103.8-56.6-119.5c-31-22-56.4-71.3-45.2-73.2c11.2-1.9,56.6,39.7,56.6,39.7
						s-11.8-16.2-9-17.5s25.7,15.3,29.2,34.9s47.5,109.8,84.4,138.6C1216.3,605.5,1151.1,627.3,1120,573.6z"/>
					<path class="st29" d="M1321.4,438.4c55.1,13.7,29.9,180-16.5,278.7c-46.4,98.6-133.7,13.4-166.3-10.7
						c-12.4-9.2-20.5-18.5-25.9-26.5c10.5-58.9,28.4-122,50.6-166.4C1215.2,574.4,1239.9,418.1,1321.4,438.4z"/>
					<path class="st30" d="M1304.8,426.4c69.3,6.9,31.3,179.8-19.3,249.6c-50.6,69.8-122.7,2.3-145.5-37.9s-68.9-108.6-68.9-153.1
						c0-8.3,17.1-10.1,37.6-8.5c19.3,1.4,106.4,121.4,106.4,121.4S1244.3,420.4,1304.8,426.4z"/>
					<path class="st23" d="M1137.8,204.9c-42.3,17.8-17,74.2,5.3,76.3c22.3,2.1,48.1-39.1,61.4-40.4c13.3-1.4-2.7,23,9.1,28.6
						c11.8,5.6,22.8,14.9,26.3,29.5c3.4,14.7,12.9,46.5-2.5,47.9s-32.1-15.4-42.6-16c-10.5-0.7-19.6,2.3-19.6,2.3
						s26.6,36.7,46.1,38.8c19.5,2.1,40.8-26.4,56-50.5s8.7-40.2,8.7-40.2s15.5,17.5,25.3,16.1s-14.7-15.4-15.3-56.5
						c-0.7-41.2-18.8-62.8-41.2-62.8c-22.3,0-19.5-11.4-53.6-10.5C1170.4,168.3,1147.7,200.7,1137.8,204.9z"/>
					<path class="st8" d="M1230.9,289c-1,10.6,4.5,19.8,12.2,20.5s14.8-7.3,15.8-17.9s-4.5-19.8-12.2-20.5
						C1238.9,270.4,1231.9,278.4,1230.9,289z"/>
				</g>
			</g>
		</g>
	</g>
	<g>
		<g>
			<defs>
				
					<ellipse id="SVGID_9_" transform="matrix(0.7071 -0.7071 0.7071 0.7071 -192.3301 1588.2867)" cx="1821.1" cy="1026.3" rx="251.2" ry="251.2"/>
			</defs>
			<clipPath id="SVGID_10_">
				<use xlink:href="#SVGID_9_"  style="overflow:visible;"/>
			</clipPath>
			
				<ellipse transform="matrix(0.7071 -0.7071 0.7071 0.7071 -192.3184 1588.2947)" class="st31" cx="1821.1" cy="1026.3" rx="251.2" ry="251.2"/>
		</g>
		<g>
			<defs>
				
					<ellipse id="SVGID_11_" transform="matrix(0.7071 -0.7071 0.7071 0.7071 -192.3185 1588.2947)" cx="1821.1" cy="1026.3" rx="251.2" ry="251.2"/>
			</defs>
			<clipPath id="SVGID_12_">
				<use xlink:href="#SVGID_11_"  style="overflow:visible;"/>
			</clipPath>
			<g class="st32">
				<path class="st7" d="M1781.5,906.6c-19.1,38.3-3.3,82.4,34.4,98c37.9,15.7,79.4,6.8,98.5-31.5s4.9-84.2-31.8-102.5
					C1845.9,852.1,1800.7,868.3,1781.5,906.6z"/>
				<g>
					<path class="st7" d="M1884.7,1009.6c-1.9,0-3-0.3-3.1-0.3c-1.3-0.4-2-1.7-1.7-3c0.4-1.3,1.7-2,3-1.7c0.1,0,8.9,2.1,22.1-9.6
						c14.9-13.2,25.3-43.2,9.9-87.9c-0.4-1.3,0.2-2.7,1.5-3.1c1.3-0.4,2.7,0.2,3.1,1.5c20.4,59-3.5,86.2-11.3,93.1
						C1897.5,1008.1,1889,1009.6,1884.7,1009.6z"/>
				</g>
				<g>
					<path class="st33" d="M1826.2,1055.6c-21.8,4.9-49.3,65.4-62.8,104.2c-13.6,39.1-36.6,87.7-51.7,102.8
						c-15.1,15.1-114.2,50-114.2,50s244.9,0.5,239.8,0C1832.3,1312.1,1826.2,1055.6,1826.2,1055.6z"/>
					<path class="st34" d="M1696.2,1293.1c13.4-1.9,61.8,4.3,41.2-4.3s-17.7-19.6-17.7-19.6s29.2,24.4,34.5,3.1
						c4.5-18.4,6.3-83.4,23.5-148.6c14.2-32.3,32.9-64.6,48.5-68.1c0,0,0.6,22.9,1.5,55.1c-6,71.2-16.2,175.8-18.8,202.1
						c-32.5,0.1-86.8,0-132.2-0.1l-30.2-1.4C1646.4,1311.3,1682.8,1295.1,1696.2,1293.1z"/>
					<path class="st33" d="M1906.3,1042.2c0,0,69.3,38.7,85.5,47s-45.3,250-58.9,260.4c-13.7,10.4-133.9,1.8-147.6-11.3
						c-13.7-13.1,10.5-53.1-1.3-133.3c-11.8-80.2,36.1-149.5,42.3-149.3c6.2,0.2,46.4-13.4,46.4-13.4L1906.3,1042.2L1906.3,1042.2z"
						/>
					<path class="st34" d="M1932.8,1349.5c-13.7,10.4-99.7,10.6-136.4-0.8c-4.1-1.3-22.9-8.8-23.3-15.8c4.4-0.8,22,1.3,29.1-0.4
						c24.8-5.7,38.4-36.4,38.4-36.4s13.6-4.9,44.2-17.8c30.5-12.9,18-52.1,18.7-69.3c0.7-17.2,30.2-73.6,85.5-116.3l5.1,2.3
						C1998,1134.2,1945.5,1339.9,1932.8,1349.5z"/>
					<path class="st8" d="M1863.8,1289.3c-43.6,8.1-54.3,18.1-78,22c-26.9,4.3-23.7,10.3-3.7,10.3s70.2,0.8,87.5-3.1
						C1886.7,1314.7,1863.8,1289.3,1863.8,1289.3z"/>
					<path class="st33" d="M1997.2,1093.7c33.4,106.8,80.7,227.9,73.2,227.9s-199.3,7.8-206.8,1.3s-5.4-31.2-4.3-34.5
						c1.1-3.2,109-22.4,109-22.4s-14.2-27.7-19.6-81.8C1943.3,1130.1,1990.9,1073.4,1997.2,1093.7z"/>
				</g>
				<path class="st8" d="M1880.9,949.4l26.9,98.3c0,0-45.5,70.9-57.9,64.6c-12.5-6.3,7-57.7,7-64.6s-19.5-79-19.5-79L1880.9,949.4z"
					/>
				<path class="st12" d="M1855.9,1052.7c0.6-2.3,0.9-4.1,0.9-5c0-7-19.5-79-19.5-79l43.5-19.3l8.9,32.5
					C1882,1015.5,1868,1037.9,1855.9,1052.7z"/>
				<path class="st8" d="M1780.3,947.8c-5.1,28.5-1.7,66.4,23.6,76c25.3,9.6,55.8-8.8,68.1-41.1c12.3-32.3,1.7-66.4-23.6-76
					C1823.1,897,1786.4,913.7,1780.3,947.8z"/>
				
					<ellipse transform="matrix(0.3354 -0.9421 0.9421 0.3354 336.5083 2414.1638)" class="st8" cx="1879.3" cy="968.6" rx="19.2" ry="14.1"/>
				<path class="st7" d="M1780,911.9c8.6,66.9,89.9,58.3,89.9,58.3s16.8-22,24.3-10.5c7.5,11.6-10.5-67.8-57.1-70.3
					C1821.7,888.6,1780,911.9,1780,911.9z"/>
				<ellipse class="st7" cx="1906.6" cy="883.7" rx="44" ry="41.3"/>
			</g>
		</g>
	</g>
	<g>
		<g>
			<defs>
				<circle id="SVGID_13_" cx="383.4" cy="280.8" r="153"/>
			</defs>
			<clipPath id="SVGID_14_">
				<use xlink:href="#SVGID_13_"  style="overflow:visible;"/>
			</clipPath>
			<circle class="st35" cx="383.4" cy="280.8" r="153"/>
		</g>
		<g>
			<defs>
				<circle id="SVGID_15_" cx="383.4" cy="280.8" r="153"/>
			</defs>
			<clipPath id="SVGID_16_">
				<use xlink:href="#SVGID_15_"  style="overflow:visible;"/>
			</clipPath>
			<g class="st36">
				<path class="st37" d="M336.1,266.7c-0.4-1.1-9.9-55.7-11-76.9s34.1-24.3,34.1-24.3s28.8-15.5,49.7-7.6c20.8,8,35,21.4,44.5,38
					c9.5,16.7-8.3,68.7-8.3,68.7L336.1,266.7z"/>
				<path class="st17" d="M270.7,442.1c-0.1-0.9,2.4-22.4,2.5-23.2c4.8-45.2,60.6-58,116.2-58c65.4,0,109.7,12,116.8,59
					c0.2,1.4,4,22.9,3.8,24.4C388.9,445.9,270.7,442.1,270.7,442.1z"/>
				<path class="st8" d="M400.7,396c-6.5,9.6-11.2,10-18.3,0c-5.6-7.9-24.3-26-24.3-35.1l7.7-91c0-9.1,7.5-16.6,16.6-16.6h18.3
					c9.1,0,16.6,7.5,16.6,16.6l3.6,91C420.8,370,406.5,387.4,400.7,396z"/>
				<path class="st12" d="M400.7,253.3h-18.3c-9.1,0-16.6,7.5-16.6,16.6l-6.7,80.8c20.5,6.5,48.2-6.7,60.4-21.4l-2.3-59.4
					C417.3,260.7,409.8,253.3,400.7,253.3z"/>
				<path class="st38" d="M328.9,367.5l29.3,54.1c0,0,15.7-12.9,17.2-10.4s-2.8,34.4-2.8,34.4s34.9,0.5,36.4-1s-7.1-34.6-3.5-34.6
					c3.5,0,14.2,9.6,14.2,9.6l32.7-52.1l-7.2-1.7l-53.5,28.8l-57.3-28.2L328.9,367.5z"/>
				<polygon class="st39" points="362.4,392.5 384.1,407 377.4,445.8 406.7,444.1 399.4,408.9 417.4,392.5 408.9,384.5 370.8,384.5 
									"/>
				<path class="st17" d="M359.7,341l-26.9,25.6c0,0,27.4,48.7,28.9,48.7s23.2-26.9,23.2-26.9l13.9-0.2l22,23.1l25.5-45.2l-26-27.6
					c0,0-22.2,43-26.3,44c-4,1-4.1,1.5-7.3-1C383.4,378.9,359.7,341,359.7,341z"/>
				<ellipse class="st8" cx="391.6" cy="254.2" rx="55.2" ry="75.2"/>
				<path class="st8" d="M342,253c5.2,10.9,3.5,22.5-3.8,25.9c-7.2,3.4-17.3-2.6-22.5-13.4c-5.2-10.9-3.5-22.5,3.8-25.9
					C326.8,236.2,336.9,242.2,342,253z"/>
				<path class="st8" d="M438.6,253c-5.2,10.9-3.5,22.5,3.8,25.9c7.2,3.4,17.3-2.6,22.5-13.4c5.2-10.9,3.5-22.5-3.8-25.9
					C453.8,236.2,443.8,242.2,438.6,253z"/>
				<path class="st17" d="M416,285c0,0-11,17.8-24.5,17.8S367,285,367,285H416z"/>
				<path class="st37" d="M359.2,203c22.7-15.9,33-13.3,50,12.9c17.1,26.2,37.5,26.6,37.5,26.6l2.7-27.1c0,0-25.4-49.2-59.5-42.7
					c-34.1,6.4-53.5,37.1-53.5,37.1s-1.7,57.5,3.1,59.5c4.8,2,5.3-18.6,8.7-22.7c3.4-4.2-3.4-23.9,1.1-33
					C353.9,204.6,359.2,203,359.2,203z"/>
				<path class="st37" d="M432.3,232.6c7.9,8.7,4.9,43.2,9.1,42.8c4.2-0.4,5.7-33,4.5-36.4C444.8,235.6,432.3,232.6,432.3,232.6z"/>
			</g>
		</g>
	</g>
	<g>
		<g>
			<defs>
				
					<ellipse id="SVGID_17_" transform="matrix(0.7071 -0.7071 0.7071 0.7071 259.7575 1477.0784)" cx="1912.9" cy="425" rx="163" ry="163"/>
			</defs>
			<clipPath id="SVGID_18_">
				<use xlink:href="#SVGID_17_"  style="overflow:visible;"/>
			</clipPath>
			
				<ellipse transform="matrix(0.7071 -0.7071 0.7071 0.7071 259.7617 1477.0918)" class="st40" cx="1912.9" cy="425" rx="163" ry="163"/>
		</g>
		<g>
			<defs>
				
					<ellipse id="SVGID_19_" transform="matrix(0.7071 -0.7071 0.7071 0.7071 259.7616 1477.0918)" cx="1912.9" cy="425" rx="163" ry="163"/>
			</defs>
			<clipPath id="SVGID_20_">
				<use xlink:href="#SVGID_19_"  style="overflow:visible;"/>
			</clipPath>
			<g class="st41">
				<path class="st42" d="M1828,400.8c0,44.8,27,117.1,90.6,114.8s77.7-71.2,80.2-90.7C2001.3,405.5,1828,400.8,1828,400.8z"/>
				<path class="st39" d="M1801.5,575.3c21-45.2,56.6-59.7,115-59.7c69.5,0,105.6,25.2,115.9,61.9c-40.9,0.6-79.8,41.2-113.7,40.9
					C1849.4,617.7,1801.5,575.3,1801.5,575.3z"/>
				<path class="st8" d="M1928,551.7c-6.7,9.8-11.5,10.2-18.8,0c-5.7-8.1-17.1-26.6-17.1-36V422c0-9.4,7.7-17.1,17.1-17.1h18.8
					c9.4,0,17.1,7.7,17.1,17.1v93.6C1945.1,525,1934,542.9,1928,551.7z"/>
				<path class="st12" d="M1928,405h-18.8c-9.4,0-17.1,7.7-17.1,17.1v83.5c21.1,6.7,40.3-6.6,52.9-21.6v-62
					C1945.1,412.7,1937.4,405,1928,405z"/>
				<path class="st8" d="M1975.3,405.9c0,42.7-25.4,77.3-56.7,77.3c-31.3,0-56.7-34.6-56.7-77.3s25.4-77.3,56.7-77.3
					C1949.9,328.7,1975.3,363.3,1975.3,405.9z"/>
				<path class="st42" d="M1949.8,347.2c-6.7,23.8-21.5,23.5-42.1,31.3s-30.4,15.7-37.2,30.9c-8.6,19.4,3.9,75.9,3.9,75.9
					s-52.1-39-46.1-100.4s42.2-85.1,76.3-85.1c34,0,47,20.7,47,20.7s18.1,0.1,35.3,20.4c23.1,27.3,16,93.6,0,117.4
					s-26.6,31.2-26.2,30.1s14.9-55.6,7.1-89.4C1959.9,365.3,1949.8,347.2,1949.8,347.2z"/>
				<path class="st17" d="M1939.9,447.8c0,0-9.5,12.4-21.3,12.4s-21.3-12.4-21.3-12.4H1939.9z"/>
			</g>
		</g>
	</g>
	<g>
		<path class="st43" d="M1160.6,757.1c-47.9,0-94.4-9.4-138.2-27.9c-42.3-17.9-80.2-43.5-112.8-76.1s-58.2-70.6-76.1-112.8
			c-18.5-43.8-27.9-90.3-27.9-138.2s9.4-94.4,27.9-138.2c17.9-42.3,43.5-80.2,76.1-112.8s70.6-58.2,112.8-76.1
			c43.8-18.5,90.3-27.9,138.2-27.9s94.4,9.4,138.2,27.9c42.3,17.9,80.2,43.5,112.8,76.1c32.6,32.6,58.2,70.6,76.1,112.8
			c18.5,43.8,27.9,90.3,27.9,138.2s-9.4,94.4-27.9,138.2c-17.9,42.3-43.5,80.2-76.1,112.8s-70.6,58.2-112.8,76.1
			C1255,747.7,1208.5,757.1,1160.6,757.1z M1160.6,55c-191.4,0-347,155.7-347,347s155.7,347,347,347s347-155.7,347-347
			S1351.9,55,1160.6,55z"/>
	</g>
	<g>
		<path class="st43" d="M1821.1,1281.5c-68.2,0-132.3-26.5-180.5-74.8c-48.2-48.2-74.8-112.3-74.8-180.5s26.5-132.3,74.8-180.5
			c48.2-48.2,112.3-74.8,180.5-74.8s132.3,26.5,180.5,74.8c48.2,48.2,74.8,112.3,74.8,180.5s-26.5,132.3-74.8,180.5
			C1953.4,1255,1889.3,1281.5,1821.1,1281.5z M1821.1,779.1c-136.3,0-247.2,110.9-247.2,247.2s110.9,247.2,247.2,247.2
			s247.2-110.9,247.2-247.2S1957.4,779.1,1821.1,779.1z"/>
	</g>
	<g>
		<path class="st43" d="M383.4,437.8c-86.6,0-157-70.4-157-157s70.4-157,157-157s157,70.4,157,157S470,437.8,383.4,437.8z
			 M383.4,131.8c-82.2,0-149,66.8-149,149s66.8,149,149,149s149-66.8,149-149S465.6,131.8,383.4,131.8z"/>
	</g>
	<g>
		<path class="st43" d="M1912.9,592c-92.1,0-167-74.9-167-167s74.9-167,167-167s167,74.9,167,167S2005,592,1912.9,592z M1912.9,266
			c-87.7,0-159,71.3-159,159s71.3,159,159,159s159-71.3,159-159S2000.6,266,1912.9,266z"/>
	</g>
	<g>
		<ellipse class="st44" cx="979.5" cy="230.2" rx="74.5" ry="74.5"/>
		<path class="st17" d="M978.7,204c0,0-26-23-44.5-0.9c-25.3,30.3,44.5,68.8,44.5,68.8s71-39.7,46.2-70.4
			C1006.1,178.4,978.7,204,978.7,204z"/>
	</g>
	<g>
		<ellipse class="st44" cx="1278.9" cy="1277.7" rx="74.5" ry="74.5"/>
		<path class="st17" d="M1278.1,1251.3c0,0-26-23-44.5-0.9c-25.3,30.3,44.5,68.8,44.5,68.8s71-39.7,46.2-70.4
			C1305.5,1225.7,1278.1,1251.3,1278.1,1251.3z"/>
	</g>
	<g>
		<path class="st44" d="M899.2,53.8c0,29.1-23.6,52.7-52.7,52.7c-29.1,0-52.7-23.6-52.7-52.7s23.6-52.7,52.7-52.7
			C875.6,1.2,899.2,24.8,899.2,53.8z"/>
		<path class="st17" d="M846,35.3c0,0-18.4-16.2-31.4-0.6C796.7,56.1,846,83.3,846,83.3s50.2-28.1,32.6-49.7
			C865.4,17.2,846,35.3,846,35.3z"/>
	</g>
	<g>
		<path class="st44" d="M1436.8,997.4c0,29.1-23.6,52.7-52.7,52.7s-52.7-23.6-52.7-52.7c0-29.1,23.6-52.7,52.7-52.7
			C1413.3,944.7,1436.8,968.3,1436.8,997.4z"/>
		<path class="st17" d="M1383.7,978.9c0,0-18.4-16.2-31.4-0.6c-17.9,21.4,31.4,48.6,31.4,48.6s50.2-28.1,32.6-49.7
			C1403,960.8,1383.7,978.9,1383.7,978.9z"/>
	</g>
	<g>
		<ellipse class="st45" cx="263.9" cy="327.5" rx="74.5" ry="74.5"/>
		<path class="st17" d="M262.2,278.4c9.7-1.3,18,22.7,17.3,30.3c-0.7,7.7,18-1,27,5.7s6.3,41.3,0,43.7c-6.3,2.3-31.9,2.7-40.1-1.7
			c-8.2-4.3-13.8-3.5-13.8-3.5l-4.2-36.3c0,0,5.1-1.5,10.8-6.5C264.9,305.1,262.2,278.4,262.2,278.4z M219.2,363.4
			c2.3,2,28.7,8.3,30-5s-5.3-41.7-5.3-41.7s-18.3-0.9-24.7,2.3C216.8,320.3,216.9,361.4,219.2,363.4z"/>
	</g>
	<g>
		<circle class="st45" cx="1627.9" cy="878.8" r="68.3"/>
		<path class="st17" d="M1626.3,833.8c8.9-1.2,16.5,20.8,15.9,27.8s16.5-0.9,24.8,5.2c8.2,6.1,5.8,37.9,0,40s-29.2,2.4-36.8-1.5
			c-7.5-4-12.6-3.2-12.6-3.2l-3.9-33.2c0,0,4.7-1.4,9.9-6C1628.8,858.2,1626.3,833.8,1626.3,833.8z M1586.9,911.7
			c2.1,1.8,26.3,7.6,27.5-4.6c1.2-12.2-4.9-38.2-4.9-38.2s-16.8-0.8-22.6,2.1C1584.7,872.2,1584.8,909.9,1586.9,911.7z"/>
	</g>
	<g>
		<ellipse class="st30" cx="437" cy="1452.2" rx="74.5" ry="74.5"/>
		<path class="st17" d="M401.6,1491.6c-11-65.9,39.4-67.5,39.4-67.5v-19.5l40,39.9l-38.5,38.5v-22.3c0,0-19.3,0.8-26.7,11.4
			C408.4,1482.7,401.6,1491.6,401.6,1491.6z"/>
	</g>
	<g>
		<circle class="st43" cx="123" cy="110.7" r="20"/>
		<circle class="st43" cx="123" cy="200.7" r="20"/>
		<ellipse class="st43" cx="48" cy="157.2" rx="20" ry="20"/>
		<g>
			<path class="st43" d="M123,204.7c-0.7,0-1.4-0.2-2-0.5l-75-43.5c-1.2-0.7-2-2-2-3.4s0.7-2.7,1.9-3.5l75-46.5
				c1.9-1.2,4.3-0.6,5.5,1.3s0.6,4.3-1.3,5.5l-69.3,43l69.2,40.1c1.9,1.1,2.6,3.6,1.5,5.5C125.7,204,124.4,204.7,123,204.7z"/>
		</g>
	</g>
	<g>
		<circle class="st43" cx="2052.3" cy="638.4" r="20"/>
		<circle class="st43" cx="2052.3" cy="728.4" r="20"/>
		<circle class="st43" cx="1977.3" cy="684.9" r="20"/>
		<g>
			<path class="st43" d="M2052.3,732.4c-0.7,0-1.4-0.2-2-0.5l-75-43.5c-1.2-0.7-2-2-2-3.4s0.7-2.7,1.9-3.5l75-46.5
				c1.9-1.2,4.3-0.6,5.5,1.3c1.2,1.9,0.6,4.3-1.3,5.5l-69.3,43l69.2,40.1c1.9,1.1,2.6,3.6,1.5,5.5
				C2055,731.6,2053.7,732.4,2052.3,732.4z"/>
		</g>
	</g>
	<g>
		<path class="st24" d="M1610.7,102.8h-31.6c-6.7,0-12.1,5.4-12.1,12.1v26c0,6.7,5.4,12.1,12.1,12.1h31.6c6.7,0,12.1-5.4,12.1-12.1
			v-26C1622.7,108.2,1617.3,102.8,1610.7,102.8z"/>
		<path class="st24" d="M1712,102.8h-31.6c-6.7,0-12.1,5.4-12.1,12.1v26c0,6.7,5.4,12.1,12.1,12.1h31.6c6.7,0,12.1-5.4,12.1-12.1
			v-26C1724.1,108.2,1718.7,102.8,1712,102.8z"/>
		<path class="st24" d="M1813.3,102.8h-31.6c-6.7,0-12.1,5.4-12.1,12.1v26c0,6.7,5.4,12.1,12.1,12.1h31.6c6.7,0,12.1-5.4,12.1-12.1
			v-26C1825.4,108.2,1820,102.8,1813.3,102.8z"/>
	</g>
</g>
</svg>
